SplineFontDB: 3.0
FontName: Epigraf
FullName: font4527
FamilyName: SVGFont 2
Weight: Regular
Copyright: 
Version: 1.0
ItalicAngle: 0
UnderlinePosition: 0
UnderlineWidth: 0
Ascent: 800
Descent: 200
InvalidEm: 0
sfntRevision: 0x00010000
woffMajor: 1
woffMinor: 0
LayerCount: 2
Layer: 0 0 "Back" 1
Layer: 1 0 "Fore" 0
HasVMetrics: 1
XUID: [1021 437 -521488251 12815108]
StyleMap: 0x0000
FSType: 8
OS2Version: 3
OS2_WeightWidthSlopeOnly: 0
OS2_UseTypoMetrics: 0
CreationTime: 1455662059
ModificationTime: 1458026908
PfmFamily: 17
TTFWeight: 400
TTFWidth: 5
LineGap: 90
VLineGap: 90
Panose: 2 0 5 9 0 0 0 0 0 0
OS2TypoAscent: 800
OS2TypoAOffset: 0
OS2TypoDescent: -200
OS2TypoDOffset: 0
OS2TypoLinegap: 90
OS2WinAscent: 1000
OS2WinAOffset: 0
OS2WinDescent: 82
OS2WinDOffset: 0
HheadAscent: 1000
HheadAOffset: 0
HheadDescent: -82
HheadDOffset: 0
OS2SubXSize: 649
OS2SubYSize: 699
OS2SubXOff: 0
OS2SubYOff: 140
OS2SupXSize: 649
OS2SupYSize: 699
OS2SupXOff: 0
OS2SupYOff: 479
OS2StrikeYSize: 50
OS2StrikeYPos: 259
OS2Vendor: 'PfEd'
OS2CodePages: 00000001.00000000
OS2UnicodeRanges: 00000001.00000000.00000000.00000000
MarkAttachClasses: 1
DEI: 91125
LangName: 1033 "" "" "" "FontForge 2.0 : font4527 : 17-2-2016" "" "Version 1.0"
Encoding: UnicodeBmp
UnicodeInterp: none
NameList: AGL For New Fonts
DisplaySize: -128
AntiAlias: 0
FitToEm: 0
WinInfo: 36 9 5
BeginPrivate: 7
BlueValues 15 [-10 0 929 943]
BlueScale 9 0.0319355
BlueShift 1 0
StdHW 3 [9]
StdVW 3 [9]
StemSnapH 6 [9 12]
StemSnapV 6 [9 12]
EndPrivate
Grid
-1000 1000 m 0
 2000 1000 l 1024
  Named: "up"
-1000 -80.078125 m 0
 2000 -80.078125 l 1024
  Named: "bottom"
EndSplineSet
BeginChars: 65537 26

StartChar: .notdef
Encoding: 65536 -1 0
Width: 1000
Flags: HMW
HStem: 0 50<100 900 100 950> 483 50<100 900 100 100>
VStem: 50 50<50 50 50 483> 900 50<50 483 483 483>
LayerCount: 2
Fore
SplineSet
50 0 m 1
 50 533 l 1
 950 533 l 1
 950 0 l 1
 50 0 l 1
100 50 m 1
 900 50 l 1
 900 483 l 1
 100 483 l 1
 100 50 l 1
EndSplineSet
Validated: 1
EndChar

StartChar: uni0000
Encoding: 0 -1 1
AltUni2: 000000.ffffffff.0
Width: 1000
VWidth: 87
GlyphClass: 2
Flags: W
LayerCount: 2
Fore
SplineSet
0 0 m 1
 977 0 l 1
 977 1000 l 1
 0 1000 l 1
 0 0 l 1
EndSplineSet
Validated: 9
EndChar

StartChar: zero
Encoding: 48 48 2
Width: 997
VWidth: 0
GlyphClass: 2
Flags: HMW
HStem: -603127 8237.46 -32049 8633.5 107909 9187.94
VStem: -500.695 3.33106 -211.981 2.51085 -145.628 1.77433
LayerCount: 2
Fore
SplineSet
495.599609375 993 m 4
 533 993 571.5 986.400390625 606.700195312 974.299804688 c 4
 652.900390625 955.599609375 695.799804688 929.200195312 731 894 c 4
 777.200195312 850 814.599609375 797.200195312 839.900390625 737.799804688 c 4
 870.700195312 669.599609375 888.299804688 597 896 524.400390625 c 4
 899.299804688 477.099609375 900.400390625 428.700195312 893.799804688 382.5 c 4
 883.900390625 292.299804688 856.400390625 204.299804688 809.099609375 127.299804688 c 4
 789.299804688 94.2998046875 764 65.7001953125 738.700195312 38.2001953125 c 5
 696.900390625 -1.400390625 648.5 -37.7001953125 591.299804688 -54.2001953125 c 5
 512.099609375 -80.599609375 421.900390625 -69.599609375 349.299804688 -30 c 4
 288.799804688 3 237.099609375 52.5 198.599609375 109.700195312 c 5
 172.200195312 153.700195312 146.900390625 199.900390625 131.5 249.400390625 c 4
 123.799804688 272.5 118.299804688 295.599609375 113.900390625 318.700195312 c 4
 104 358.299804688 100.700195312 399 98.5 439.700195312 c 4
 96.2998046875 484.799804688 101.799804688 531 108.400390625 576.099609375 c 4
 113.900390625 606.900390625 120.5 639.900390625 130.400390625 669.599609375 c 4
 144.700195312 718 168.900390625 763.099609375 193.099609375 807.099609375 c 5
 216.200195312 840.099609375 241.5 874.200195312 272.299804688 900.599609375 c 4
 328.400390625 953.400390625 403.200195312 986.400390625 480.200195312 993 c 4
 485.700195312 993 490.099609375 993 495.599609375 993 c 4
494.5 986.400390625 m 4
 490.099609375 986.400390625 484.599609375 986.400390625 480.200195312 986.400390625 c 4
 405.400390625 979.799804688 331.700195312 946.799804688 276.700195312 895.099609375 c 4
 250.299804688 872 228.299804688 843.400390625 206.299804688 814.799804688 c 5
 182.099609375 775.200195312 157.900390625 733.400390625 143.599609375 688.299804688 c 5
 129.299804688 652 121.599609375 612.400390625 113.900390625 573.900390625 c 4
 106.200195312 523.299804688 100.700195312 472.700195312 106.200195312 422.099609375 c 5
 107.299804688 385.799804688 113.900390625 349.5 120.5 314.299804688 c 5
 133.700195312 265.900390625 148 217.5 171.099609375 173.5 c 5
 198.599609375 115.200195312 236 62.400390625 285.5 20.599609375 c 4
 333.900390625 -21.2001953125 392.200195312 -50.900390625 457.099609375 -59.7001953125 c 4
 533 -70.7001953125 613.299804688 -49.7998046875 676 -5.7998046875 c 4
 716.700195312 20.599609375 750.799804688 55.7998046875 779.400390625 94.2998046875 c 4
 811.299804688 138.299804688 836.599609375 187.799804688 855.299804688 239.5 c 4
 878.400390625 305.5 889.400390625 374.799804688 891.599609375 443 c 4
 893.799804688 491.400390625 888.299804688 537.599609375 880.599609375 584.900390625 c 4
 863 677.299804688 830 769.700195312 769.5 843.400390625 c 4
 746.400390625 870.900390625 718.900390625 898.400390625 690.299804688 920.400390625 c 4
 634.200195312 963.299804688 564.900390625 986.400390625 494.5 986.400390625 c 4
500 892.900390625 m 4
 502.200195312 892.900390625 503.299804688 892.900390625 505.5 892.900390625 c 4
 517.599609375 891.799804688 529.700195312 890.700195312 540.700195312 888.5 c 4
 617.700195312 876.400390625 684.799804688 819.200195312 714.5 747.700195312 c 4
 728.799804688 709.200195312 733.200195312 666.299804688 738.700195312 626.700195312 c 4
 747.5 556.299804688 753 484.799804688 749.700195312 414.400390625 c 4
 745.299804688 352.799804688 740.900390625 292.299804688 727.700195312 231.799804688 c 5
 722.200195312 186.700195312 701.299804688 143.799804688 671.599609375 109.700195312 c 4
 636.400390625 67.900390625 585.799804688 42.599609375 533 33.7998046875 c 4
 485.700195312 25 436.200195312 37.099609375 393.299804688 58 c 4
 332.799804688 86.599609375 291 143.799804688 272.299804688 207.599609375 c 5
 249.200195312 307.700195312 245.900390625 412.200195312 249.200195312 514.5 c 4
 251.400390625 582.700195312 258 650.900390625 273.400390625 719.099609375 c 5
 287.700195312 765.299804688 315.200195312 809.299804688 351.5 840.099609375 c 4
 393.299804688 874.200195312 445 892.900390625 500 892.900390625 c 4
495.599609375 886.299804688 m 4
 493.400390625 886.299804688 493.400390625 886.299804688 491.200195312 886.299804688 c 4
 421.900390625 883 351.5 847.799804688 313 788.400390625 c 5
 272.299804688 734.5 270.099609375 665.200195312 260.200195312 600.299804688 c 5
 249.200195312 482.599609375 250.299804688 360.5 271.200195312 243.900390625 c 4
 283.299804688 164.700195312 332.799804688 86.599609375 409.799804688 56.900390625 c 4
 457.099609375 36 512.099609375 30.5 561.599609375 48.099609375 c 5
 627.599609375 64.599609375 681.5 115.200195312 707.900390625 176.799804688 c 4
 722.200195312 213.099609375 725.5 252.700195312 732.099609375 291.200195312 c 5
 739.799804688 359.400390625 746.400390625 430.900390625 744.200195312 500.200195312 c 4
 740.900390625 562.900390625 736.5 626.700195312 723.299804688 688.299804688 c 5
 716.700195312 741.099609375 691.400390625 789.5 652.900390625 825.799804688 c 4
 611.099609375 866.5 553.900390625 886.299804688 495.599609375 886.299804688 c 4
808 484.799804688 m 4
 821.200195312 484.799804688 828.900390625 478.200195312 832.200195312 465 c 4
 833.299804688 445.200195312 810.200195312 430.900390625 794.799804688 443 c 5
 776.099609375 454 783.799804688 481.5 803.599609375 484.799804688 c 4
 804.700195312 484.799804688 806.900390625 484.799804688 808 484.799804688 c 4
188.700195312 484.799804688 m 4
 199.700195312 484.799804688 208.5 480.400390625 210.700195312 468.299804688 c 4
 216.200195312 447.400390625 192 429.799804688 175.5 443 c 5
 156.799804688 452.900390625 163.400390625 481.5 183.200195312 484.799804688 c 4
 184.299804688 484.799804688 187.599609375 484.799804688 188.700195312 484.799804688 c 4
188.700195312 479.299804688 m 4
 187.599609375 479.299804688 186.5 478.200195312 184.299804688 478.200195312 c 4
 161.200195312 471.599609375 170 441.900390625 192 445.200195312 c 4
 211.799804688 448.5 207.400390625 479.299804688 188.700195312 479.299804688 c 4
809.099609375 479.299804688 m 4
 808 479.299804688 806.900390625 478.200195312 804.700195312 478.200195312 c 6
 804.700195312 478.200195312 l 5
 801.400390625 477.099609375 l 5
 780.5 469.400390625 794.799804688 438.599609375 814.599609375 446.299804688 c 4
 833.299804688 450.700195312 826.700195312 479.299804688 809.099609375 479.299804688 c 4
EndSplineSet
Validated: 524325
EndChar

StartChar: one
Encoding: 49 49 3
Width: 643
VWidth: 87
GlyphClass: 2
Flags: HMWO
HStem: -82 10 -11 10 1 10G 536 10 881 10
VStem: 126 10 314 10 457 10
LayerCount: 2
Fore
SplineSet
343.030273438 808.724609375 m 4
 374.680664062 824.931640625 359.400390625 871.391601562 322.29296875 848.702148438 c 6
 322.29296875 848.702148438 l 5
 322.29296875 847.62109375 l 6
 305.922851562 834.655273438 323.384765625 800.080078125 343.030273438 808.724609375 c 4
340.84765625 814.125976562 m 4
 329.93359375 808.724609375 315.745117188 834.655273438 326.659179688 843.298828125 c 4
 326.659179688 843.298828125 389.959960938 836.81640625 340.84765625 814.125976562 c 4
454.352539062 12.4052734375 m 4
 439.073242188 9.1640625 423.79296875 15.6474609375 421.611328125 30.7734375 c 6
 421.611328125 30.7734375 l 5
 421.611328125 30.7734375 l 6
 417.245117188 55.625 420.51953125 84.7978515625 419.428710938 111.810546875 c 6
 419.428710938 967.555664062 l 5
 419.428710938 967.555664062 l 6
 417.245117188 981.600585938 404.1484375 988.084960938 393.234375 991.326171875 c 6
 393.234375 991.326171875 l 5
 392.143554688 991.326171875 l 6
 357.21875 990.245117188 322.29296875 993.486328125 287.368164062 990.245117188 c 6
 286.27734375 990.245117188 l 5
 286.27734375 990.245117188 l 6
 269.90625 987.004882812 261.174804688 972.958007812 261.174804688 957.830078125 c 5
 241.530273438 888.680664062 205.513671875 824.931640625 152.03515625 777.389648438 c 6
 152.03515625 777.389648438 l 5
 152.03515625 776.30859375 l 6
 128.024414062 750.377929688 95.2822265625 736.331054688 65.814453125 714.720703125 c 6
 64.7236328125 713.641601562 l 5
 64.7236328125 712.560546875 l 6
 53.8095703125 687.708984375 61.44921875 660.697265625 59.265625 636.927734375 c 6
 59.265625 635.846679688 l 5
 59.265625 635.846679688 l 6
 62.5400390625 619.638671875 74.5458984375 604.51171875 93.0986328125 606.671875 c 4
 116.01953125 607.752929688 143.3046875 603.430664062 166.223632812 609.915039062 c 6
 167.315429688 609.915039062 l 5
 167.315429688 610.995117188 l 6
 183.685546875 626.12109375 197.874023438 640.16796875 213.153320312 655.294921875 c 4
 229.524414062 672.583007812 246.986328125 687.708984375 263.357421875 703.916992188 c 5
 263.357421875 345.1953125 l 4
 263.357421875 30.7734375 l 6
 261.174804688 13.4853515625 242.62109375 10.2451171875 226.25 12.4052734375 c 6
 226.25 12.4052734375 l 5
 226.25 12.4052734375 l 6
 194.599609375 14.56640625 173.86328125 -27.572265625 193.508789062 -51.3427734375 c 5
 193.508789062 -51.3427734375 222.975585938 -72.953125 236.072265625 -70.7919921875 c 5
 469.6328125 -70.7919921875 l 5
 469.6328125 -69.7109375 l 6
 492.551757812 -58.90625 503.465820312 -30.814453125 492.551757812 -8.123046875 c 6
 492.551757812 -8.123046875 l 5
 491.459960938 -8.123046875 l 6
 484.911132812 4.841796875 471.815429688 16.7275390625 454.352539062 12.4052734375 c 4
392.143554688 985.923828125 m 5
 401.965820312 982.681640625 410.696289062 977.279296875 412.879882812 967.555664062 c 6
 412.879882812 111.810546875 l 6
 413.970703125 85.87890625 410.696289062 56.705078125 415.0625 30.7734375 c 5
 412.879882812 51.302734375 412.879882812 51.302734375 415.0625 30.7734375 c 4
 417.245117188 10.2451171875 439.073242188 4.841796875 455.444335938 8.083984375 c 6
 455.444335938 8.083984375 l 5
 455.444335938 8.083984375 l 6
 468.541015625 11.3251953125 479.455078125 0.5205078125 486.002929688 -11.365234375 c 5
 476.180664062 7.0029296875 477.272460938 8.083984375 486.002929688 -11.365234375 c 4
 494.735351562 -30.814453125 487.094726562 -53.50390625 467.450195312 -64.30859375 c 5
 236.072265625 -64.30859375 l 5
 234.981445312 -64.30859375 l 6
 219.701171875 -66.4697265625 206.60546875 -62.1474609375 198.96484375 -48.1025390625 c 6
 198.96484375 -48.1025390625 l 5
 198.96484375 -48.1025390625 l 6
 182.59375 -27.572265625 201.1484375 10.2451171875 226.25 8.083984375 c 5
 205.513671875 10.2451171875 205.513671875 10.2451171875 226.25 8.083984375 c 4
 242.62109375 5.921875 266.631835938 8.083984375 268.815429688 30.7734375 c 6
 268.815429688 30.7734375 l 5
 268.815429688 719.04296875 l 5
 263.357421875 713.641601562 l 6
 229.524414062 681.225585938 198.96484375 646.651367188 164.040039062 615.31640625 c 5
 143.3046875 609.915039062 116.01953125 614.235351562 92.0087890625 613.15625 c 4
 77.8203125 612.076171875 69.087890625 621.799804688 65.814453125 636.927734375 c 5
 67.9970703125 661.77734375 61.44921875 686.62890625 70.1796875 709.319335938 c 5
 97.46484375 728.767578125 132.389648438 746.055664062 156.400390625 773.067382812 c 5
 141.12109375 757.94140625 141.12109375 759.021484375 156.400390625 773.067382812 c 4
 210.970703125 821.689453125 248.078125 887.599609375 267.723632812 956.75 c 6
 267.723632812 956.75 l 5
 267.723632812 957.830078125 l 6
 267.723632812 970.796875 274.271484375 981.600585938 287.368164062 983.762695312 c 5
 266.631835938 980.521484375 266.631835938 981.600585938 287.368164062 983.762695312 c 4
 321.201171875 987.004882812 356.126953125 984.842773438 392.143554688 985.923828125 c 5
329.93359375 63.1875 m 5
 355.03515625 48.0615234375 382.3203125 99.92578125 341.938476562 105.327148438 c 5
 362.674804688 102.0859375 363.766601562 102.0859375 343.030273438 105.327148438 c 4
 319.01953125 109.649414062 308.104492188 71.8330078125 329.93359375 63.1875 c 5
332.116210938 68.5908203125 m 6
 316.836914062 75.07421875 324.475585938 103.166015625 341.938476562 99.92578125 c 6
 341.938476562 99.92578125 l 5
 341.938476562 99.92578125 l 6
 359.400390625 97.763671875 360.4921875 85.87890625 353.944335938 76.154296875 c 4
 349.578125 68.5908203125 339.755859375 64.2685546875 332.116210938 68.5908203125 c 6
 332.116210938 68.5908203125 l 5
 332.116210938 68.5908203125 l 6
EndSplineSet
EndChar

StartChar: two
Encoding: 50 50 4
Width: 994
VWidth: 87
GlyphClass: 2
Flags: HMW
HStem: -72 10 39 10 75 10 783 10 789 12
VStem: 684 12
LayerCount: 2
Fore
SplineSet
675.0859375 827.568359375 m 4xe4
 662.267578125 800.86328125 713.541015625 776.293945312 718.8828125 813.681640625 c 4
 723.154296875 838.25 685.768554688 850.000976562 675.0859375 827.568359375 c 4xe4
681.495117188 824.364257812 m 4
 688.97265625 841.454101562 715.677734375 833.977539062 712.47265625 814.75 c 4
 708.200195312 785.908203125 672.94921875 806.204101562 681.495117188 824.364257812 c 4
433.672851562 -2.4228515625 m 4
 439.013671875 -34.46875 496.696289062 -22.71875 475.33203125 13.599609375 c 6
 475.33203125 13.599609375 l 5
 474.264648438 13.599609375 l 6
 459.309570312 28.5537109375 431.537109375 20.0087890625 433.672851562 -2.4228515625 c 4
440.08203125 -1.35546875 m 4
 437.946289062 14.66796875 460.377929688 21.0771484375 471.059570312 10.3955078125 c 5
 487.083007812 -17.3779296875 443.286132812 -22.71875 440.08203125 -1.35546875 c 4
773.360351562 124.692382812 m 4
 769.086914062 106.533203125 762.677734375 99.0556640625 749.859375 96.919921875 c 6
 749.859375 96.919921875 315.102539062 96.919921875 276.646484375 96.919921875 c 5
 307.625 143.920898438 346.080078125 183.444335938 387.740234375 219.762695312 c 4
 425.126953125 249.672851562 464.650390625 280.649414062 507.37890625 303.08203125 c 6
 507.37890625 303.08203125 l 5
 507.37890625 303.08203125 l 6
 559.720703125 335.127929688 618.471679688 351.151367188 674.017578125 377.856445312 c 6
 674.017578125 377.856445312 l 5
 674.017578125 377.856445312 l 6
 755.201171875 423.7890625 823.565429688 496.426757812 855.611328125 585.086914062 c 4
 872.703125 629.951171875 887.658203125 679.088867188 873.771484375 728.225585938 c 5
 859.884765625 801.930664062 821.4296875 873.500976562 761.610351562 920.501953125 c 5
 702.858398438 970.70703125 622.922851562 1001.38378906 545.6796875 996.129882812 c 4
 486.014648438 992.071289062 424.05859375 976.047851562 369.580078125 941.865234375 c 4
 323.647460938 914.091796875 281.98828125 874.568359375 252.079101562 829.704101562 c 4
 217.896484375 779.499023438 199.737304688 720.748046875 193.328125 659.860351562 c 6
 192.259765625 658.79296875 l 5
 193.328125 658.79296875 l 6
 199.737304688 622.473632812 223.237304688 587.22265625 259.556640625 575.47265625 c 5
 306.556640625 555.176757812 365.30859375 578.677734375 387.740234375 624.610351562 c 4
 401.626953125 649.178710938 403.762695312 683.361328125 392.012695312 710.06640625 c 4
 385.603515625 728.225585938 373.853515625 741.043945312 361.03515625 753.862304688 c 6
 361.03515625 753.862304688 l 5
 361.03515625 753.862304688 l 6
 345.012695312 762.407226562 326.852539062 774.158203125 307.625 775.2265625 c 5
 322.579101562 799.794921875 340.739257812 822.2265625 363.170898438 839.318359375 c 6
 363.170898438 839.318359375 l 5
 363.170898438 839.318359375 l 6
 432.604492188 898.069335938 543.697265625 894.864257812 613.130859375 836.11328125 c 6
 613.130859375 836.11328125 l 5
 613.130859375 836.11328125 l 6
 655.858398438 805.135742188 681.495117188 754.930664062 690.040039062 702.587890625 c 5
 695.381835938 641.701171875 679.359375 579.74609375 644.107421875 530.609375 c 4
 624.880859375 504.971679688 599.244140625 483.608398438 572.5390625 465.448242188 c 4
 539.424804688 443.016601562 497.763671875 437.67578125 460.377929688 417.379882812 c 5
 413.376953125 400.288085938 371.717773438 371.447265625 332.194335938 342.60546875 c 6
 332.194335938 342.60546875 l 5
 332.194335938 342.60546875 l 6
 290.533203125 308.422851562 248.874023438 271.036132812 218.96484375 225.103515625 c 5
 161.28125 148.192382812 132.440429688 54.19140625 118.553710938 -39.810546875 c 4
 117.486328125 -53.697265625 108.939453125 -81.4697265625 136.712890625 -72.9248046875 c 5
 758.40625 -72.9248046875 l 5
 758.40625 -72.9248046875 l 6
 782.973632812 -65.447265625 781.90625 -35.537109375 791.51953125 -19.5146484375 c 6
 791.51953125 -18.4462890625 l 5
 792.587890625 -18.4462890625 l 6
 812.883789062 33.8955078125 835.315429688 86.2373046875 854.543945312 138.579101562 c 6
 854.543945312 138.579101562 l 5
 854.543945312 138.579101562 l 6
 856.6796875 166.352539062 821.4296875 183.444335938 798.997070312 168.48828125 c 5
 798.997070312 168.48828125 774.428710938 136.443359375 773.360351562 124.692382812 c 4
269.169921875 94.7822265625 m 6
 265.965820312 90.5107421875 l 5
 750.927734375 90.5107421875 l 5
 768.01953125 93.71484375 775.49609375 103.329101562 779.76953125 123.625 c 6
 779.76953125 123.625 l 5
 779.76953125 123.625 l 6
 780.837890625 140.71484375 785.111328125 156.739257812 801.133789062 163.1484375 c 6
 802.201171875 163.1484375 l 5
 802.201171875 163.1484375 l 6
 820.361328125 175.966796875 849.202148438 162.079101562 848.133789062 139.647460938 c 5
 828.90625 88.373046875 806.474609375 36.0322265625 786.178710938 -16.3095703125 c 5
 795.791992188 2.91796875 796.860351562 1.849609375 786.178710938 -16.3095703125 c 4
 774.428710938 -35.537109375 777.6328125 -60.1064453125 757.336914062 -66.515625 c 5
 135.64453125 -66.515625 l 5
 135.64453125 -66.515625 l 6
 115.348632812 -72.9248046875 122.826171875 -57.96875 124.962890625 -39.810546875 c 4
 137.78125 53.123046875 167.690429688 144.98828125 224.305664062 220.830078125 c 6
 224.305664062 220.830078125 l 5
 224.305664062 220.830078125 l 6
 253.146484375 265.6953125 294.806640625 303.08203125 336.465820312 337.264648438 c 5
 320.443359375 324.446289062 319.375 324.446289062 336.465820312 337.264648438 c 4
 375.989257812 366.10546875 416.581054688 394.947265625 462.513671875 412.038085938 c 6
 462.513671875 412.038085938 l 5
 462.513671875 412.038085938 l 6
 497.763671875 431.266601562 540.493164062 436.607421875 575.743164062 460.107421875 c 4
 603.515625 478.266601562 629.153320312 500.69921875 649.44921875 527.404296875 c 4
 685.768554688 577.609375 701.791015625 640.6328125 696.44921875 702.587890625 c 6
 696.44921875 702.587890625 l 5
 696.44921875 703.657226562 l 6
 687.904296875 757.067382812 661.19921875 809.408203125 616.334960938 841.454101562 c 5
 632.358398438 828.635742188 633.42578125 827.568359375 617.40234375 841.454101562 c 4
 545.833984375 902.341796875 431.537109375 904.478515625 358.8984375 844.66015625 c 5
 375.989257812 857.478515625 375.989257812 857.478515625 358.8984375 844.66015625 c 4
 334.330078125 825.431640625 314.034179688 799.794921875 299.080078125 773.08984375 c 6
 296.942382812 768.81640625 l 5
 302.284179688 768.81640625 l 6
 322.579101562 769.885742188 337.534179688 759.203125 356.76171875 748.521484375 c 5
 369.580078125 736.771484375 381.331054688 723.953125 386.671875 707.9296875 c 6
 386.671875 707.9296875 l 5
 386.671875 707.9296875 l 6
 397.353515625 683.361328125 396.28515625 651.315429688 383.466796875 627.814453125 c 4
 362.103515625 584.018554688 305.489257812 563.72265625 261.692382812 581.881835938 c 6
 261.692382812 581.881835938 l 5
 261.692382812 581.881835938 l 6
 228.578125 592.564453125 205.078125 624.610351562 198.668945312 659.860351562 c 5
 205.078125 718.612304688 223.237304688 777.36328125 257.418945312 826.5 c 4
 287.329101562 871.364257812 326.852539062 908.750976562 372.78515625 936.524414062 c 4
 426.1953125 969.638671875 487.083007812 985.662109375 545.6796875 989.58984375 c 4
 621.840820312 994.6953125 701.791015625 965.366210938 758.40625 915.16015625 c 5
 817.15625 869.227539062 853.475585938 798.7265625 867.362304688 727.157226562 c 6
 867.362304688 727.157226562 l 5
 867.362304688 727.157226562 l 6
 880.180664062 680.15625 866.293945312 631.01953125 849.202148438 586.155273438 c 4
 817.15625 499.630859375 750.927734375 428.061523438 670.8125 383.197265625 c 5
 688.97265625 392.810546875 690.040039062 392.810546875 670.8125 383.197265625 c 4
 616.334960938 356.4921875 557.583007812 340.46875 504.173828125 308.422851562 c 5
 522.333007812 319.10546875 523.401367188 318.037109375 504.173828125 308.422851562 c 4
 460.377929688 285.991210938 421.921875 255.012695312 384.536132812 225.103515625 c 4
 340.739257812 187.715820312 300.147460938 143.920898438 269.169921875 94.7822265625 c 6
EndSplineSet
Validated: 524325
EndChar

StartChar: three
Encoding: 51 51 5
Width: 1000
VWidth: 0
GlyphClass: 2
Flags: HMW
HStem: -66 6<553 553> 772 6<518 518> 921 6 926 6<737 737>
VStem: 178 6<258 258> 303 6 722 6<86 96>
LayerCount: 2
Fore
SplineSet
554 -66 m 1xee
 730 -61 898 101 867 284 c 1
 851 402 756 496 646 531 c 2
 646 532 l 1
 646 532 l 2
 591 542 655 584 670 613 c 1
 670 613 854 863 869 887 c 2
 870 888 l 1
 870 889 l 2
 867 956 776 925 738 932 c 2
 738 932 l 1
 738 932 l 2xde
 595 929 451 939 309 927 c 2
 307 927 l 1
 307 926 l 2
 273 869 246 800 225 738 c 2
 225 737 l 1
 225 736 l 2
 245 684 308 724 309 765 c 1
 374 783 449 767 518 772 c 1
 562 763 652 788 647 763 c 1
 588 676 522 595 468 506 c 2
 468 505 l 1
 468 504 l 2
 478 456 546 480 573 457 c 2
 574 457 l 1
 574 456 l 2
 715 401 745 194 629 99 c 1
 520 2 331 44 266 170 c 1
 342 149 432 237 382 312 c 1
 332 404 173 361 178 259 c 1
 170 150 229 54 315 -5 c 0
 384 -52 471 -76 554 -66 c 1xee
645 526 m 1
 753 491 845 398 861 283 c 1
 892 104 726 -56 553 -61 c 2
 553 -61 l 1
 553 -61 l 2
 472 -71 386 -47 319 0 c 0
 234 59 176 152 184 259 c 2
 184 259 l 1
 184 259 l 2
 180 354 330 395 377 309 c 2
 377 309 l 1
 377 309 l 2
 425 238 334 152 261 178 c 2
 255 180 l 1
 258 173 l 2
 322 38 520 -7 633 94 c 1
 753 192 722 404 577 462 c 1
 544 489 485 462 474 504 c 1
 527 592 593 674 652 760 c 2
 652 760 l 1
 652 761 l 2
 661 797 551 771 519 778 c 2
 518 778 l 1
 518 778 l 2
 449 772 372 790 305 770 c 2
 303 770 l 1
 303 767 l 2
 305 729 248 696 230 738 c 1
 251 800 277 864 311 921 c 1xee
 451 932 593 923 737 926 c 1
 781 919 860 948 864 889 c 1
 808 794 729 708 665 616 c 2
 665 616 l 1
 665 616 l 2
 654 595 582 538 645 526 c 1
558 844 m 0
 541 828 523 856 535 868 c 1
 535 868 586 876 558 844 c 0
562 840 m 2
 562 840 l 1
 562 840 l 2
 582 862 553 891 531 872 c 2
 531 872 l 1
 531 872 l 2
 514 855 540 819 562 840 c 2
722 86 m 1
 719 65 687 73 690 93 c 0
 692 106 722 106 722 86 c 1
728 85 m 2
 728 85 l 1
 728 86 l 2
 728 112 688 115 685 94 c 0
 681 67 725 55 728 85 c 2
EndSplineSet
Validated: 37
EndChar

StartChar: four
Encoding: 52 52 6
Width: 1000
VWidth: 0
GlyphClass: 2
Flags: HMW
HStem: -56 6<557 716 557 717 557 717> 156 6<233 524 524 524> 251 6<270 524 270 530> 935 6<557 557>
VStem: 443 6<881 881> 524 6<257 418 251 420 257 257> 592 6 666 6<111 156 111 161 111 156 279 489 279 279>
LayerCount: 2
Fore
SplineSet
672 111 m 2
 672 156 l 1
 715 163 754 174 791 194 c 0
 819 208 846 227 868 249 c 2
 869 250 l 1
 869 251 l 2
 871 271 851 281 844 294 c 2
 844 294 l 1
 843 295 l 2
 834 304 828 324 810 326 c 2
 809 326 l 1
 808 326 l 2
 773 297 733 272 688 262 c 2
 688 262 l 1
 688 261 l 2
 670 251 669 260 672 279 c 2
 672 279 l 1
 672 490 l 1
 672 491 l 2
 662 513 631 526 611 509 c 1
 611 509 579 455 577 454 c 2
 577 454 l 1
 576 454 l 2
 560 443 534 443 524 420 c 2
 524 420 l 1
 524 257 l 1
 270 257 l 1
 259 262 263 274 274 278 c 2
 274 278 l 1
 275 279 l 2
 318 312 359 349 396 390 c 2
 396 390 l 1
 396 391 l 2
 415 415 438 438 455 465 c 1
 507 536 542 617 568 701 c 1
 589 773 600 848 598 923 c 2
 598 924 l 1
 598 925 l 2
 590 942 572 942 557 940 c 0
 525 939 491 942 459 938 c 2
 459 938 l 1
 458 938 l 2
 433 929 444 898 443 882 c 2
 443 882 l 1
 443 882 l 2
 444 837 443 792 434 748 c 0
 427 712 417 677 405 642 c 0
 384 583 353 527 315 477 c 2
 315 477 l 1
 315 477 l 2
 284 430 241 393 200 355 c 0
 170 326 147 292 125 257 c 2
 125 257 l 1
 125 257 l 2
 108 226 95 192 84 159 c 2
 83 158 l 1
 83 158 l 2
 80 144 85 128 98 119 c 0
 120 100 155 109 174 130 c 2
 175 130 l 1
 175 131 l 2
 185 152 210 159 232 156 c 2
 233 156 l 1
 524 156 l 1
 523 116 525 75 523 36 c 1
 517 16 497 26 478 21 c 2
 478 21 l 1
 477 21 l 2
 448 7 448 -39 477 -54 c 2
 477 -54 l 1
 477 -54 l 2
 502 -58 532 -55 557 -56 c 2
 557 -56 l 1
 717 -56 l 1
 717 -56 l 2
 742 -44 751 -8 730 13 c 1
 728 11 675 32 675 33 c 0
 669 59 674 84 672 111 c 2
666 489 m 1
 666 279 l 2
 667 299 669 299 666 280 c 0
 663 262 666 243 690 256 c 1
 735 266 775 290 811 320 c 1
 824 317 827 304 839 291 c 1
 847 277 863 266 863 252 c 1
 842 232 815 213 788 199 c 0
 751 179 711 168 669 161 c 2
 666 161 l 1
 666 111 l 1
 666 110 l 2
 668 85 663 57 669 31 c 2
 669 31 l 1
 669 30 l 2
 681 4 715 26 727 9 c 2
 727 9 l 1
 727 8 l 2
 745 -9 738 -39 716 -50 c 1
 557 -50 l 2
 577 -50 577 -51 557 -50 c 0
 531 -49 504 -52 479 -48 c 1
 456 -35 454 2 479 16 c 1
 492 19 522 10 528 34 c 2
 528 35 l 1
 528 35 l 2
 531 76 529 118 530 159 c 2
 530 162 l 1
 233 162 l 2
 253 161 252 159 233 162 c 0
 209 165 182 158 170 133 c 1
 153 114 121 106 101 123 c 2
 101 123 l 1
 101 123 l 2
 91 130 86 145 89 157 c 1
 84 138 83 138 89 157 c 0
 100 190 113 224 130 254 c 1
 120 237 120 237 130 254 c 0
 152 289 175 324 204 352 c 0
 245 390 289 426 320 474 c 1
 309 458 308 458 320 474 c 0
 358 525 389 580 410 640 c 0
 422 675 432 711 439 747 c 0
 448 791 450 837 449 882 c 1
 448 862 447 862 449 881 c 0
 451 902 439 926 460 934 c 1
 491 938 525 934 557 935 c 2
 558 935 l 1
 558 935 l 2
 573 937 585 935 592 922 c 1
 594 849 583 773 562 702 c 1
 536 619 502 538 450 468 c 2
 450 468 l 1
 450 468 l 2
 434 442 413 419 393 394 c 1
 406 409 406 408 393 394 c 0
 356 354 316 318 272 284 c 1
 260 279 249 260 268 252 c 2
 269 251 l 1
 530 251 l 1
 530 418 l 1
 538 437 561 435 580 449 c 1
 564 438 563 439 580 449 c 0
 603 463 595 494 614 504 c 2
 614 504 l 1
 614 504 l 2
 630 518 657 509 666 489 c 1
496 784 m 1
 511 762 550 790 531 811 c 1
 543 796 542 794 531 810 c 0
 515 832 478 805 496 784 c 1
500 788 m 2
 487 803 515 823 526 807 c 2
 526 807 l 1
 526 807 l 2
 539 793 511 772 501 788 c 2
 501 788 l 1
 500 788 l 2
587 77 m 0
 572 95 597 117 613 96 c 1
 621 80 600 64 587 77 c 0
618 99 m 2
 618 99 l 1
 618 100 l 2
 597 128 563 96 583 73 c 2
 583 73 l 1
 583 73 l 2
 600 56 630 78 618 99 c 2
EndSplineSet
Validated: 37
EndChar

StartChar: five
Encoding: 53 53 7
Width: 848
VWidth: 0
GlyphClass: 2
Flags: HMW
HStem: 109 6<607 607> 608 6<436 436> 774 6<254 254> 929 6<182 582 582 582>
VStem: 154 6<388 897 386 898> 248 6<571 774 571 780>
LayerCount: 2
Fore
SplineSet
670 727 m 2
 683 712 700 717 716 724 c 2
 716 724 l 1
 717 724 l 2
 738 744 716 769 710 787 c 2
 710 787 l 1
 710 787 l 2
 690 831 673 877 652 920 c 2
 652 920 l 1
 652 920 l 2
 634 942 603 932 582 935 c 2
 582 935 l 1
 181 935 l 1
 181 935 l 2
 162 932 151 916 154 897 c 1
 154 386 l 1
 154 385 l 2
 175 355 223 354 248 379 c 2
 249 380 l 1
 249 380 l 2
 261 398 268 417 282 433 c 2
 282 433 l 1
 283 433 l 2
 317 480 376 510 435 501 c 0
 487 492 531 456 557 411 c 0
 578 374 593 333 596 290 c 0
 603 225 587 157 548 104 c 0
 531 80 507 60 482 45 c 0
 434 21 374 24 330 56 c 1
 319 66 303 72 305 80 c 1
 322 104 329 133 321 161 c 0
 310 212 254 247 203 233 c 0
 160 223 124 180 133 134 c 2
 133 134 l 1
 133 134 l 2
 144 96 157 54 189 28 c 1
 229 -11 280 -39 335 -53 c 0
 373 -64 414 -67 453 -62 c 0
 501 -57 547 -39 588 -15 c 2
 588 -15 l 1
 588 -15 l 2
 627 11 665 44 689 85 c 1
 722 133 740 189 746 247 c 0
 750 291 744 336 731 378 c 0
 717 418 699 453 678 483 c 2
 678 483 l 1
 678 483 l 2
 642 527 597 565 545 588 c 0
 511 603 474 610 437 614 c 2
 437 614 l 1
 437 614 l 2
 407 615 377 613 348 606 c 0
 315 600 281 588 254 571 c 1
 254 774 l 1
 627 775 l 1
 641 769 670 727 670 727 c 2
674 480 m 1
 694 450 712 416 726 376 c 0
 739 335 743 290 740 247 c 0
 734 190 717 134 685 88 c 2
 685 88 l 1
 685 88 l 2
 661 48 624 16 585 -10 c 1
 602 1 602 0 585 -10 c 0
 545 -34 500 -51 453 -56 c 0
 414 -61 374 -59 336 -48 c 0
 282 -34 233 -6 193 33 c 2
 193 33 l 1
 193 33 l 2
 162 58 150 97 139 135 c 1
 143 116 143 116 139 135 c 0
 131 177 165 218 205 228 c 0
 252 241 304 208 315 160 c 0
 322 134 316 105 300 83 c 2
 300 83 l 1
 299 82 l 2
 294 67 319 59 326 52 c 2
 326 51 l 1
 326 51 l 2
 372 18 434 15 484 40 c 2
 484 40 l 1
 485 40 l 2
 511 56 534 76 552 101 c 0
 592 155 609 225 602 291 c 0
 599 335 584 377 562 414 c 0
 536 461 490 498 436 507 c 0
 375 516 313 486 278 437 c 1
 290 452 291 452 278 437 c 0
 264 420 255 400 244 384 c 1
 222 361 181 362 160 388 c 1
 160 898 l 1
 160 898 l 2
 156 913 167 927 182 929 c 1
 162 928 162 929 182 929 c 2
 582 929 l 2
 562 930 563 931 582 929 c 0
 606 926 630 937 647 917 c 1
 668 874 685 829 705 785 c 1
 698 803 698 804 704 785 c 0
 711 764 729 746 713 729 c 1
 699 723 680 723 669 736 c 2
 668 736 l 1
 668 736 l 2
 655 747 654 777 629 780 c 2
 629 780 l 1
 248 780 l 1
 248 561 l 1
 252 563 l 2
 281 582 315 596 349 602 c 2
 349 602 l 1
 349 602 l 2
 377 609 407 609 436 608 c 1
 416 609 417 610 436 608 c 0
 472 604 510 598 543 583 c 0
 594 561 639 523 674 480 c 1
399 846 m 0
 420 824 455 865 419 882 c 2
 419 882 l 1
 419 882 l 2
 400 888 385 860 399 846 c 0
403 850 m 0
 393 861 405 880 417 876 c 1
 419 881 432 818 403 850 c 0
604 72 m 0
 631 64 651 114 607 114 c 2
 607 114 l 1
 607 114 l 2
 586 112 584 77 604 72 c 0
608 109 m 0
 644 109 624 73 606 78 c 0
 592 82 593 107 608 109 c 0
EndSplineSet
Validated: 37
EndChar

StartChar: six
Encoding: 54 54 8
Width: 1000
VWidth: 0
GlyphClass: 2
Flags: HMW
HStem: -60 6<515 515> 771 6<303 303> 842 6
VStem: 166 6 312 6<585 585> 849 6<233 233>
LayerCount: 2
Fore
SplineSet
515 -60 m 1
 577 -67 641 -50 696 -21 c 0
 738 3 775 38 803 77 c 0
 834 123 851 177 854 233 c 2
 854 233 l 1
 854 233 l 2
 845 346 800 455 719 509 c 1
 672 545 612 559 553 563 c 0
 517 566 480 558 446 549 c 2
 446 549 l 1
 446 549 l 2
 405 534 364 514 333 483 c 1
 320 515 319 550 317 585 c 1
 319 622 323 660 341 692 c 2
 341 692 l 1
 341 692 l 2
 359 736 392 773 432 799 c 0
 470 826 516 840 563 842 c 2
 563 842 l 1
 563 842 l 2
 580 844 599 841 616 839 c 1
 577 809 567 749 594 708 c 0
 614 678 650 659 686 663 c 1
 729 665 768 700 774 744 c 1
 781 771 773 801 752 821 c 1
 702 881 631 921 554 933 c 0
 520 939 483 938 449 932 c 2
 449 932 l 1
 448 932 l 2
 415 922 381 911 354 888 c 1
 319 866 292 834 268 801 c 2
 268 801 l 1
 268 801 l 2
 236 753 209 701 193 645 c 1
 175 590 167 533 164 476 c 0
 162 440 163 403 166 367 c 0
 176 279 198 192 244 115 c 1
 261 84 284 55 308 30 c 0
 338 -1 374 -27 415 -43 c 0
 447 -55 481 -59 515 -60 c 1
716 504 m 2
 716 504 l 1
 716 504 l 2
 795 451 840 345 849 233 c 1
 849 253 850 253 849 233 c 0
 846 178 828 125 798 80 c 0
 771 41 734 7 693 -16 c 0
 639 -45 578 -61 516 -54 c 2
 515 -54 l 1
 515 -54 l 2
 482 -53 448 -50 417 -38 c 0
 377 -22 341 3 312 34 c 0
 288 58 265 87 249 118 c 2
 249 118 l 1
 249 118 l 2
 204 193 182 281 172 368 c 0
 169 403 168 440 170 476 c 0
 173 533 181 589 199 643 c 1
 215 699 241 750 272 798 c 1
 261 782 260 782 272 798 c 0
 296 830 323 861 357 883 c 2
 358 883 l 1
 358 884 l 2
 384 906 417 916 450 926 c 1
 431 922 431 923 450 926 c 0
 484 932 519 934 553 928 c 0
 628 917 698 876 747 817 c 2
 747 817 l 1
 747 816 l 2
 767 797 775 770 769 745 c 2
 769 745 l 1
 769 745 l 2
 764 704 726 671 686 669 c 2
 686 669 l 1
 686 669 l 2
 652 665 618 684 599 712 c 0
 572 752 585 813 626 838 c 2
 634 843 l 1
 625 844 l 2
 604 845 584 851 563 848 c 1
 583 850 583 849 563 848 c 0
 515 846 468 831 429 804 c 0
 389 778 355 740 336 694 c 1
 344 712 345 711 336 694 c 0
 317 660 314 622 312 585 c 2
 312 585 l 1
 312 585 l 2
 314 549 313 512 329 478 c 2
 331 474 l 1
 334 477 l 2
 364 509 406 529 448 544 c 1
 429 538 429 539 448 544 c 0
 482 553 518 561 553 558 c 0
 611 554 670 539 716 504 c 2
583 57 m 2
 583 57 l 1
 583 57 l 2
443 67 m 1
 443 67 l 1
764 105 m 2
 764 106 l 1
 764 106 l 2
 746 140 717 118 726 87 c 2
 726 86 l 1
 726 86 l 2
 740 66 770 84 764 105 c 2
758 104 m 1
 762 87 739 77 730 89 c 1
 723 116 744 130 758 104 c 1
296 737 m 0
 322 721 349 777 303 777 c 2
 303 777 l 1
 303 777 l 2
 282 775 279 745 296 737 c 0
303 771 m 0
 340 771 317 732 299 742 c 2
 299 742 l 1
 299 742 l 2
 287 748 289 769 303 771 c 0
685 187 m 0
 696 230 693 275 681 317 c 0
 666 366 635 415 588 438 c 0
 540 463 480 458 437 426 c 0
 391 392 364 338 355 282 c 0
 352 255 350 227 356 200 c 0
 366 146 393 92 440 62 c 1
 424 73 424 74 440 62 c 0
 481 32 541 27 586 52 c 1
 569 43 568 44 586 52 c 0
 639 77 673 131 685 187 c 0
679 188 m 0
 667 133 634 81 583 57 c 2
 583 57 l 1
 583 57 l 2
 540 33 483 38 443 67 c 2
 443 67 l 1
 443 67 l 2
 398 96 372 148 362 201 c 0
 356 227 357 255 360 281 c 0
 369 335 395 388 439 421 c 0
 480 452 539 457 585 433 c 0
 630 411 661 364 676 316 c 0
 688 275 689 230 679 188 c 0
EndSplineSet
Validated: 37
EndChar

StartChar: seven
Encoding: 55 55 9
Width: 1000
VWidth: 0
GlyphClass: 2
Flags: HMW
HStem: -69 6<271 505 271 506 271 506> 709 6<159 159> 756 6<238 641 641 641> 923 6<219 831 219 831 219 831>
VStem: 314 6<51 51>
LayerCount: 2
Fore
SplineSet
721 687 m 0
 776 751 828 817 871 890 c 2
 871 890 l 1
 871 891 l 2
 883 917 851 932 831 928 c 1
 219 928 l 1
 219 928 l 2
 200 925 193 909 188 894 c 0
 167 843 144 792 123 741 c 2
 123 740 l 1
 123 739 l 2
 124 720 140 708 159 709 c 0
 178 709 193 722 198 740 c 0
 204 756 221 758 238 756 c 2
 238 756 l 1
 641 756 l 1
 588 705 545 651 504 592 c 0
 466 536 434 477 407 415 c 0
 382 362 365 305 348 249 c 1
 330 185 321 117 314 51 c 2
 314 51 l 1
 314 51 l 2
 314 33 313 12 294 10 c 1
 277 11 257 12 247 -8 c 0
 234 -29 245 -62 270 -69 c 2
 270 -69 l 1
 506 -69 l 1
 506 -68 l 2
 532 -56 541 -19 518 1 c 1
 513 -3 465 18 464 20 c 0
 454 37 466 57 468 78 c 0
 487 203 525 325 577 440 c 0
 609 513 653 589 699 656 c 0
 706 666 714 677 721 687 c 0
716 688 m 1
 711 682 l 2
 657 607 610 526 572 442 c 0
 521 326 482 205 463 79 c 2
 463 79 l 1
 463 79 l 2
 462 60 452 39 458 18 c 2
 458 18 l 1
 458 18 l 2
 470 -7 502 11 514 -3 c 2
 514 -3 l 1
 515 -3 l 2
 535 -20 528 -52 505 -63 c 1
 271 -63 l 1
 251 -57 241 -30 252 -11 c 2
 252 -11 l 1
 253 -11 l 2
 261 5 277 5 294 4 c 2
 294 4 l 1
 295 4 l 2
 320 6 320 34 320 51 c 1
 319 31 318 32 320 51 c 0
 327 117 336 183 354 247 c 1
 371 303 387 359 412 412 c 0
 439 474 471 533 509 588 c 0
 551 648 596 706 649 757 c 2
 654 762 l 1
 238 762 l 2
 258 761 257 759 238 762 c 0
 221 764 200 761 193 741 c 2
 193 741 l 1
 193 741 l 2
 189 726 175 715 159 715 c 2
 159 715 l 1
 159 715 l 2
 143 714 130 723 129 739 c 1
 150 789 172 841 193 892 c 2
 193 892 l 1
 193 892 l 2
 198 907 205 921 220 923 c 1
 200 921 199 923 219 923 c 2
 831 923 l 1
 832 923 l 2
 851 927 875 913 866 893 c 1
 875 910 876 910 866 893 c 0
 823 821 771 753 716 689 c 1
 716 688 l 1
481 843 m 1
 474 854 480 867 491 869 c 1
 533 867 497 825 481 843 c 1
477 840 m 2
 477 840 l 1
 478 840 l 2
 502 813 543 873 491 875 c 2
 490 875 l 1
 490 875 l 2
 473 872 468 853 477 840 c 2
372 65 m 2
 372 65 l 1
 372 64 l 2
 392 34 441 83 396 97 c 2
 396 97 l 1
 395 97 l 2
 376 100 366 80 372 65 c 2
377 67 m 1
 373 80 382 92 394 91 c 1
 429 80 391 47 377 67 c 1
EndSplineSet
Validated: 37
EndChar

StartChar: eight
Encoding: 56 56 10
Width: 1000
VWidth: 0
GlyphClass: 2
Flags: HMW
HStem: -58 6<529 529> 39 6 406 6
VStem: 243 6<690 690> 790 6<670 670>
LayerCount: 2
Fore
SplineSet
640 328 m 1
 669 300 692 265 707 228 c 1
 704 199 703 169 686 146 c 2
 686 146 l 1
 685 146 l 2
 665 106 628 76 587 58 c 0
 551 43 511 39 473 45 c 0
 435 52 396 68 368 94 c 0
 341 118 321 152 312 187 c 0
 307 215 304 244 313 271 c 2
 313 271 l 1
 313 271 l 2
 329 337 386 390 451 406 c 1
 480 406 547 402 640 328 c 1
562 386 m 0
 552 390 544 394 534 398 c 2
 534 398 l 1
 533 398 l 2
 506 405 478 412 450 412 c 2
 450 412 l 1
 450 412 l 2
 382 396 325 340 308 272 c 1
 313 291 314 291 308 272 c 0
 298 244 302 214 307 186 c 2
 307 186 l 1
 307 186 l 2
 316 149 336 115 364 90 c 0
 393 63 433 46 472 39 c 0
 511 33 552 38 589 53 c 0
 631 71 669 101 690 143 c 1
 680 126 679 127 690 143 c 0
 708 168 710 199 713 228 c 2
 713 229 l 1
 713 229 l 2
 697 268 673 303 644 332 c 2
 644 332 l 1
 644 332 l 2
 620 353 592 372 562 386 c 0
300 518 m 0
 321 490 350 469 379 450 c 2
 379 450 l 1
 380 450 l 2
 385 449 387 447 388 447 c 1
 383 444 374 442 367 439 c 0
 315 420 268 387 234 344 c 0
 204 309 186 265 183 219 c 0
 181 190 186 159 195 132 c 2
 195 132 l 1
 195 132 l 2
 213 88 241 49 280 21 c 1
 317 -11 364 -28 409 -44 c 2
 410 -44 l 1
 410 -44 l 2
 449 -53 489 -60 530 -58 c 1
 568 -58 607 -51 643 -40 c 2
 643 -40 l 1
 643 -40 l 2
 689 -24 734 -4 770 29 c 0
 809 62 838 108 851 158 c 0
 861 203 855 251 835 293 c 0
 819 327 796 357 769 381 c 0
 747 402 717 417 691 432 c 2
 690 432 l 1
 690 432 l 2
 677 438 663 441 651 446 c 1
 676 459 698 477 719 495 c 2
 719 495 l 1
 719 495 l 2
 745 520 765 552 778 587 c 0
 789 613 795 642 796 670 c 0
 798 720 782 770 757 812 c 0
 737 843 713 870 681 890 c 1
 607 944 506 955 421 924 c 0
 375 907 333 878 302 841 c 0
 267 799 245 745 243 690 c 0
 239 628 260 566 300 518 c 0
382 455 m 1
 354 474 325 494 304 521 c 2
 304 521 l 1
 304 521 l 2
 265 568 244 629 248 690 c 0
 250 744 272 796 307 837 c 0
 337 874 378 901 423 918 c 0
 506 948 605 938 677 885 c 2
 678 885 l 1
 678 885 l 2
 709 866 732 839 752 809 c 0
 777 768 792 719 790 671 c 0
 789 644 784 614 773 589 c 0
 760 555 741 524 715 499 c 1
 729 512 730 512 715 499 c 0
 693 479 669 461 643 449 c 2
 637 446 l 1
 643 443 l 2
 659 436 673 432 688 426 c 1
 670 434 671 435 688 426 c 0
 714 411 743 398 765 377 c 0
 792 353 815 324 830 291 c 0
 849 251 855 204 845 160 c 0
 833 111 805 67 767 34 c 0
 732 2 686 -18 641 -34 c 1
 660 -28 661 -28 642 -34 c 0
 606 -45 567 -52 530 -52 c 2
 529 -52 l 1
 529 -52 l 2
 489 -54 450 -48 411 -39 c 1
 430 -44 429 -45 411 -39 c 0
 366 -23 320 -7 284 24 c 2
 284 25 l 1
 283 25 l 2
 245 52 219 91 201 134 c 1
 208 116 207 115 201 134 c 0
 192 161 186 190 188 218 c 0
 191 263 210 307 239 341 c 0
 273 383 318 415 369 434 c 2
 369 434 l 1
 369 434 l 2
 377 438 414 447 382 455 c 1
687 769 m 1
 701 745 711 715 706 688 c 2
 706 688 l 1
 706 688 l 2
 703 653 681 620 653 599 c 2
 653 599 l 1
 653 599 l 2
 634 583 610 574 588 567 c 1
 531 564 476 581 435 618 c 0
 414 638 395 662 385 688 c 2
 385 688 l 1
 384 688 l 2
 374 702 382 720 385 738 c 1
 397 774 426 803 459 821 c 1
 501 840 548 847 592 833 c 2
 592 833 l 1
 593 833 l 2
 631 825 665 800 687 769 c 1
379 739 m 2
 379 739 l 1
 379 739 l 2
 376 723 368 703 379 687 c 1
 390 659 410 635 431 614 c 0
 474 575 531 559 588 562 c 2
 589 562 l 1
 589 562 l 2
 612 569 637 578 657 595 c 1
 642 583 641 583 657 595 c 0
 687 616 709 651 712 688 c 1
 709 669 709 669 712 688 c 0
 717 718 705 746 691 771 c 2
 691 771 l 1
 691 771 l 2
 668 803 634 829 594 838 c 1
 613 833 613 832 594 838 c 0
 548 852 499 846 456 826 c 2
 456 826 l 1
 456 826 l 2
 422 807 392 777 379 739 c 2
714 46 m 1
 745 44 735 99 707 88 c 0
 686 82 689 45 714 46 c 1
713 52 m 2
 696 51 691 78 708 82 c 2
 709 82 l 1
 709 82 l 2
 729 90 736 50 714 52 c 2
 714 52 l 1
 713 52 l 2
354 793 m 0
 351 777 326 777 322 791 c 1
 328 818 356 823 354 793 c 0
358 792 m 2
 358 792 l 1
 358 792 l 2
 360 831 322 824 316 792 c 2
 316 791 l 1
 316 791 l 2
 321 770 354 771 358 792 c 2
EndSplineSet
Validated: 37
EndChar

StartChar: nine
Encoding: 57 57 11
Width: 1000
VWidth: 0
GlyphClass: 2
Flags: HMW
HStem: 110 6<731 731> 323 6<498 498> 937 6
VStem: 178 6<616 616> 257 6<121 121> 342 6<637 637> 715 6<291 291> 863 6<418 418>
LayerCount: 2
Fore
SplineSet
672 608 m 1026,4,5
557 446 m 1026,10,11
559 441 m 1024,32,33
673 705 m 2,40,-1
 673 705 l 1,41,-1
 673 705 l 2,40,-1
342 637 m 1024,0,0
365 532 m 1,25,-1
 366 532 l 1026,26,27
499 323 m 1,52,53
 550 324 600 338 645 362 c 2,54,-1
 645 362 l 1,55,-1
 645 362 l 2,56,57
 664 374 684 387 700 402 c 1,58,59
 712 366 717 329 715 291 c 0,60,61
 712 206 663 124 589 81 c 2,62,-1
 589 81 l 1,63,-1
 589 81 l 2,64,65
 538 49 475 42 416 49 c 1,66,67
 445 73 461 111 451 147 c 1,68,69
 443 185 411 216 373 223 c 0,70,71
 339 229 302 216 280 190 c 0,72,73
 264 170 253 147 257 121 c 1,74,75
 256 84 289 59 310 36 c 2,76,-1
 310 36 l 1,77,-1
 310 36 l 2,78,79
 348 -2 398 -24 449 -39 c 2,80,-1
 449 -39 l 1,81,-1
 449 -39 l 2,82,83
 503 -51 562 -55 615 -34 c 0,84,85
 651 -21 685 1 713 26 c 2,86,-1
 714 27 l 1,87,-1
 714 27 l 2,88,89
 736 49 758 74 774 102 c 1,90,91
 817 164 840 236 855 308 c 0,92,93
 863 344 866 381 869 418 c 2,94,-1
 869 418 l 1,95,-1
 869 418 l 2,96,97
 870 458 869 498 863 537 c 0,98,99
 855 606 836 674 807 737 c 1,100,101
 773 804 725 869 659 908 c 0,102,103
 626 927 588 941 549 942 c 1,104,105
 492 950 434 947 380 926 c 0,106,107
 335 907 292 882 259 845 c 0,108,109
 231 815 210 778 195 740 c 2,110,-1
 195 740 l 1,111,-1
 195 740 l 2,112,113
 182 700 173 658 178 616 c 1,114,115
 180 569 194 524 215 483 c 2,116,-1
 215 483 l 1,117,-1
 216 483 l 2,118,119
 237 449 262 415 295 392 c 1,120,121
 321 369 355 355 386 341 c 2,122,-1
 386 341 l 1,123,-1
 386 341 l 2,124,125
 422 329 460 320 499 323 c 1,52,53
642 367 m 0,126,127
 598 343 548 330 498 329 c 2,128,-1
 498 329 l 1,129,-1
 498 329 l 2,130,131
 460 326 424 335 388 347 c 1,132,133
 406 340 406 339 388 347 c 0,134,135
 357 361 324 374 299 396 c 2,136,-1
 299 396 l 1,137,-1
 298 396 l 2,138,139
 266 419 242 452 221 486 c 1,140,141
 231 469 230 469 221 486 c 0,142,143
 200 527 186 570 184 616 c 2,144,-1
 184 616 l 1,145,-1
 184 617 l 2,146,147
 179 658 188 699 201 738 c 1,148,149
 194 720 194 720 201 738 c 0,150,151
 216 775 236 812 263 841 c 0,152,153
 295 877 337 902 382 921 c 0,154,155
 435 942 492 945 548 937 c 2,156,-1
 549 937 l 1,157,-1
 549 937 l 2,158,159
 587 936 623 921 656 902 c 0,160,161
 721 864 768 801 802 735 c 1,162,163
 830 673 850 605 858 537 c 0,164,165
 864 498 864 458 863 418 c 1,166,167
 864 438 864 439 863 419 c 0,168,169
 860 382 859 345 851 309 c 0,170,171
 836 237 812 165 770 104 c 2,172,-1
 770 104 l 1,173,-1
 770 104 l 2,174,175
 754 77 731 53 709 31 c 1,176,177
 723 45 725 44 710 31 c 0,178,179
 682 6 649 -15 613 -28 c 0,180,181
 561 -49 504 -45 450 -33 c 1,182,183
 469 -38 470 -38 451 -33 c 0,184,185
 400 -18 350 3 313 40 c 1,186,187
 327 26 326 25 313 40 c 0,188,189
 292 64 262 88 263 121 c 2,190,-1
 263 121 l 1,191,-1
 263 121 l 2,192,193
 260 144 269 168 284 187 c 0,194,195
 305 211 340 222 372 217 c 0,196,197
 408 211 438 182 445 146 c 2,198,-1
 445 146 l 1,199,-1
 445 146 l 2,200,201
 455 110 438 70 407 49 c 2,202,-1
 401 45 l 1,203,-1
 408 44 l 2,204,205
 470 35 538 41 592 76 c 1,206,207
 575 66 575 66 592 76 c 0,208,209
 668 120 718 204 721 291 c 0,210,211
 723 331 717 370 704 408 c 2,212,-1
 703 412 l 1,213,-1
 699 409 l 2,214,215
 682 392 662 380 642 367 c 0,126,127
726 153 m 0,216,217
 691 152 699 110 731 110 c 2,218,-1
 732 110 l 1,219,-1
 732 111 l 2,220,221
 755 117 749 155 726 153 c 0,216,217
726 147 m 0,222,223
 744 148 747 121 731 116 c 1,224,225
 705 116 700 146 726 147 c 0,222,223
273 772 m 1,226,227
 288 752 331 777 304 802 c 0,228,229
 286 819 253 791 273 772 c 1,226,227
278 776 m 2,230,231
 264 788 287 810 300 798 c 0,232,233
 321 777 287 762 278 775 c 2,234,-1
 278 776 l 1,235,-1
 278 776 l 2,230,231
667 704 m 0,236,237
 674 673 677 640 672 609 c 2,238,-1
 672 608 l 1,239,-1
 672 608 l 2,240,241
 670 585 663 562 653 541 c 0,242,243
 633 499 601 461 557 446 c 2,244,-1
 557 446 l 1,245,-1
 557 446 l 2,246,247
 505 424 440 445 404 487 c 0,248,249
 391 502 381 517 371 534 c 1,250,251
 357 566 347 603 348 638 c 0,252,253
 348 670 352 703 365 732 c 0,254,255
 383 773 411 811 452 830 c 0,256,257
 487 848 531 847 567 831 c 0,258,259
 618 807 652 758 667 704 c 0,236,237
365 532 m 2,260,-1
 365 532 l 1,261,-1
 366 532 l 2,262,263
 376 514 387 498 400 483 c 0,264,265
 438 439 505 418 560 441 c 1,266,267
 542 434 540 435 559 441 c 0,268,269
 605 457 638 495 659 538 c 0,270,271
 669 560 676 584 678 608 c 1,272,273
 676 589 675 589 678 608 c 0,274,275
 684 640 680 674 673 705 c 2,276,-1
 673 705 l 1,277,-1
 673 705 l 2,278,279
 657 760 623 812 570 837 c 0,280,281
 532 854 487 854 450 835 c 0,282,283
 407 815 377 776 359 734 c 0,284,285
 345 704 342 670 342 638 c 0,286,287
 341 601 351 565 365 532 c 2,260,-1
EndSplineSet
Validated: 43
EndChar

StartChar: uni0410
Encoding: 1040 1040 12
Width: 1000
VWidth: 0
Flags: W
HStem: 107 4<126.405 289 661.279 872.259> 164 6<120.722 179.243 282.926 291.588 833.582 874.644> 332 5<334.77 612.814> 397 5<360 589>
LayerCount: 2
Fore
SplineSet
683 106 m 4
 745 107 808 105 870 107 c 4
 871 107 l 5
 902 116 898 168 865 170 c 5
 859 170 854 170 848 170 c 4
 828 169 815 186 811 205 c 4
 721 437 633 671 543 903 c 4
 527 934 477 930 466 897 c 4
 374 659 283 420 191 182 c 5
 178 162 154 172 133 170 c 4
 100 170 94 119 123 108 c 4
 124 107 l 4
 153 103 184 107 213 106 c 4
 238 107 265 103 290 107 c 4
 290 108 l 5
 291 108 l 4
 320 119 313 170 280 170 c 4
 265 167 283 182 284 197 c 5
 300 241 313 285 330 326 c 5
 342 338 360 329 378 332 c 4
 455 332 533 333 609 332 c 5
 625 325 623 305 632 288 c 6
 674 171 l 5
 653 173 635 151 641 130 c 4
 645 109 665 103 683 106 c 4
849 164 m 4
 855 164 859 164 865 164 c 5
 891 163 895 120 870 112 c 5
 808 110 744 112 682 111 c 4
 666 108 649 115 646 131 c 4
 646 132 l 5
 640 151 657 170 677 165 c 4
 683 163 l 5
 637 290 l 5
 630 303 631 329 611 337 c 4
 610 337 l 5
 533 338 455 338 378 338 c 4
 363 335 340 345 326 330 c 4
 326 329 l 5
 325 329 l 4
 307 286 295 241 279 198 c 4
 279 197 l 4
 279 193 258 160 280 165 c 5
 306 165 312 122 289 113 c 5
 265 109 239 112 213 111 c 5
 229 111 229 110 213 111 c 4
 183 112 155 109 125 113 c 5
 103 123 107 165 133 165 c 4
 134 165 l 4
 153 167 182 157 196 180 c 4
 288 418 380 658 472 896 c 4
 481 924 523 926 537 900 c 5
 530 915 531 916 537 901 c 4
 627 669 716 435 806 203 c 5
 801 218 802 220 805 204 c 4
 809 183 826 163 849 164 c 4
477 702 m 6
 475 709 l 5
 472 702 l 4
 433 601 394 501 354 400 c 4
 352 397 l 5
 597 397 l 5
 596 400 l 4
 557 501 516 601 477 702 c 6
475 693 m 5
 513 595 551 499 589 402 c 5
 360 402 l 5
 399 500 437 596 475 693 c 5
487 798 m 4
 490 776 527 782 523 806 c 4
 517 827 482 819 487 798 c 4
518 805 m 4
 521 787 495 785 493 799 c 4
 490 814 514 820 518 805 c 4
720 223 m 4
 724 202 759 207 756 230 c 4
 756 231 l 5
 750 252 715 244 720 223 c 4
725 224 m 4
 722 239 746 244 750 229 c 5
 750 229 729 198 725 224 c 4
EndSplineSet
Validated: 37
EndChar

StartChar: uni0411
Encoding: 1041 1041 13
Width: 1000
VWidth: 0
Flags: W
HStem: -144 6<3.5647 461.18> -73 6<173 381.118> 277 6<371 382.325> 349 5<173 452.674> 630 6<173 494.278> 697 6<3.97586 531.749 539.861 583.873>
VStem: 48 6<-60.2144 618.193> 167 6<-67 277 354 630> 528 6<71.6724 136.66> 645 5<546.107 567.172>
LayerCount: 2
Fore
SplineSet
48 -49 m 0
 47 -67 31 -82 13 -78 c 0
 12 -78 l 0
 -6 -80 -14 -94 -15 -109 c 0
 -16 -126 -6 -143 15 -144 c 0
 156 -144 296 -146 437 -144 c 1
 543 -138 641 -57 664 47 c 1
 688 143 648 251 566 308 c 1
 516 345 454 357 393 354 c 1
 173 354 l 1
 173 630 l 1
 279 630 380 631 484 629 c 1
 531 624 573 591 591 547 c 0
 596 538 606 533 616 531 c 0
 631 529 647 535 650 553 c 0
 649 577 634 597 627 618 c 0
 614 643 606 672 591 697 c 0
 590 698 l 0
 574 709 555 701 540 703 c 0
 364 703 187 704 11 703 c 0
 -4 700 -13 688 -14 674 c 0
 -16 657 -7 638 14 636 c 0
 15 636 l 0
 36 640 51 619 48 598 c 0
 48 597 l 1
 48 382 49 166 48 -49 c 0
15 -138 m 0
 -2 -138 -10 -124 -9 -109 c 0
 -9 -96 -2 -86 12 -84 c 1
 33 -88 53 -70 54 -49 c 0
 55 166 54 382 54 597 c 1
 57 619 40 647 14 642 c 1
 -2 644 -10 658 -8 674 c 0
 -7 685 -1 694 11 697 c 1
 187 698 364 697 540 697 c 1
 537 697 536 698 539 697 c 0
 556 694 573 702 586 693 c 1
 599 670 608 641 621 615 c 1
 620 618 620 619 621 616 c 0
 629 594 644 576 645 553 c 1
 643 540 630 534 616 537 c 0
 607 539 601 543 596 550 c 1
 577 595 535 630 485 635 c 0
 484 635 l 1
 379 637 274 635 170 636 c 0
 167 636 l 1
 167 350 l 1
 393 349 l 1
 394 349 l 0
 454 352 514 339 563 303 c 1
 643 248 683 143 659 49 c 1
 636 -53 541 -133 437 -138 c 1
 296 -140 156 -138 15 -138 c 0
371 276 m 0
 452 268 524 199 528 116 c 1
 535 36 476 -41 399 -61 c 0
 354 -73 306 -65 259 -67 c 1
 173 -67 l 1
 173 277 l 1
 239 276 305 279 371 276 c 0
170 283 m 2
 167 283 l 1
 167 -73 l 1
 259 -73 l 1
 306 -71 354 -79 401 -66 c 0
 481 -45 541 34 534 117 c 1
 530 202 456 274 372 282 c 0
 305 285 237 282 170 283 c 2
82 569 m 0
 86 559 96 558 104 561 c 0
 114 565 122 575 115 588 c 0
 114 588 l 1
 101 606 73 589 82 569 c 0
87 571 m 0
 81 584 101 597 110 585 c 1
 110 585 112 569 103 566 c 0
 96 564 89 565 87 571 c 0
524 -30 m 0
 528 -40 539 -41 547 -38 c 0
 557 -34 565 -25 558 -12 c 0
 545 6 515 -10 524 -30 c 0
530 -27 m 2
 524 -14 544 -3 553 -15 c 1
 553 -15 554 -30 545 -33 c 0
 538 -35 532 -34 530 -28 c 0
 530 -27 l 2
EndSplineSet
Validated: 37
EndChar

StartChar: uni0412
Encoding: 1042 1042 14
Width: 1000
VWidth: 0
Flags: W
HStem: -209 5<-56.5428 -54 449 454.239> -128 7<138 376.795> -53 6<63.333 78.7986> 281 7<368 381.088> 364 7<138 371.368> 692 7<361 367.023> 771 6<-58.2014 424.138>
VStem: -8 7<-113.888 639.281> 131 7<-121 281 371 692> 540 7<41.4487 118.012>
LayerCount: 2
Fore
SplineSet
387 771 m 0
 395 771 401 772 409 771 c 1
 507 764 597 691 622 596 c 1
 648 510 615 415 549 354 c 1
 523 339 557 328 564 322 c 0
 667 257 714 121 683 5 c 1
 658 -103 561 -193 449 -202 c 1
 354 -205 260 -203 165 -204 c 1
 92 -203 20 -206 -54 -203 c 1
 -82 -194 -82 -145 -50 -140 c 1
 -26 -144 -2 -124 -1 -100 c 0
 0 150 -1 401 -1 651 c 1
 -2 632 -4 631 -1 650 c 0
 3 675 -14 710 -46 705 c 1
 -77 707 -84 762 -52 771 c 1
 94 773 241 770 387 771 c 0
-8 -100 m 0
 -9 -121 -28 -138 -49 -134 c 0
 -50 -134 l 0
 -89 -138 -92 -199 -55 -209 c 0
 -54 -209 l 0
 19 -212 92 -209 165 -210 c 1
 260 -209 355 -212 450 -209 c 0
 565 -199 662 -106 688 4 c 1
 720 123 672 261 568 328 c 1
 554 340 535 338 553 348 c 0
 553 349 l 0
 621 410 656 509 629 598 c 1
 603 696 511 769 410 776 c 1
 402 777 395 778 387 778 c 0
 241 777 94 779 -52 777 c 0
 -53 777 l 1
 -92 767 -88 700 -46 699 c 0
 -45 699 l 0
 -20 704 -4 674 -8 651 c 0
 -8 401 -7 150 -8 -100 c 0
368 280 m 0
 462 270 537 184 540 91 c 1
 547 -3 481 -96 388 -116 c 1
 337 -125 284 -119 232 -121 c 1
 138 -121 l 1
 138 13 138 149 138 281 c 1
 215 280 291 283 368 280 c 0
369 287 m 2
 291 290 213 287 135 288 c 0
 131 288 l 1
 131 285 l 0
 131 148 131 13 131 -124 c 0
 131 -128 l 1
 232 -128 l 1
 284 -126 337 -133 389 -123 c 1
 486 -102 554 -6 547 91 c 1
 544 188 467 277 369 287 c 2
536 643 m 2
 536 642 l 0
 515 629 530 590 557 604 c 0
 558 604 l 0
 579 618 559 653 536 643 c 2
539 636 m 0
 556 642 568 618 554 609 c 1
 554 609 511 617 539 636 c 0
76 -83 m 0
 55 -88 46 -59 70 -53 c 0
 87 -53 92 -78 76 -83 c 0
70 -47 m 2
 69 -47 l 1
 36 -54 48 -97 77 -90 c 0
 100 -83 94 -46 70 -47 c 2
346 364 m 2
 358 364 368 365 379 369 c 1
 451 394 485 479 478 549 c 1
 474 614 432 685 362 697 c 0
 361 697 l 1
 286 700 210 698 135 699 c 0
 131 699 l 1
 131 364 l 1
 346 364 l 2
361 691 m 0
 426 680 467 611 471 548 c 1
 477 480 445 399 377 376 c 1
 367 373 357 371 346 371 c 2
 138 371 l 1
 138 692 l 1
 213 691 287 694 361 691 c 0
EndSplineSet
Validated: 37
EndChar

StartChar: uni0413
Encoding: 1043 1043 15
Width: 1000
VWidth: 0
Flags: W
HStem: -31 5<72.1738 277.218> 104 4<164.537 178.675> 696 6<234 540.535> 760 6<73.6127 576.17 583.861 626.435>
VStem: 116 5<49.3887 683.897> 154 5<83.9265 99.356> 229 5<47.5562 696> 683 5<618.151 637.068>
LayerCount: 2
Fore
SplineSet
115 57 m 0
 114 40 100 26 83 29 c 0
 82 29 l 1
 69 28 62 20 59 10 c 0
 54 -6 58 -25 76 -31 c 0
 77 -31 l 0
 112 -34 148 -31 183 -32 c 0
 213 -31 243 -34 273 -31 c 0
 274 -31 l 0
 286 -27 292 -17 293 -6 c 0
 295 10 288 27 269 29 c 0
 268 29 l 1
 248 25 233 42 234 62 c 2
 234 696 l 1
 334 696 429 697 528 696 c 1
 573 692 614 661 632 619 c 0
 632 618 l 1
 637 610 645 606 655 604 c 0
 669 602 685 606 688 623 c 0
 688 624 l 1
 687 646 673 665 666 685 c 0
 654 709 646 736 632 760 c 0
 631 761 l 1
 616 772 598 764 584 766 c 0
 416 766 249 767 81 766 c 0
 80 766 l 0
 65 763 59 750 58 737 c 0
 57 721 64 704 83 702 c 0
 84 702 l 0
 104 706 119 685 116 666 c 0
 116 665 l 0
 116 462 116 260 115 57 c 0
229 62 m 2
 228 41 245 20 269 24 c 1
 283 22 290 9 288 -6 c 0
 287 -15 282 -23 272 -26 c 1
 243 -29 213 -26 183 -27 c 1
 148 -26 113 -29 77 -26 c 1
 63 -21 58 -5 63 9 c 0
 66 17 72 23 82 24 c 1
 102 20 120 36 121 57 c 0
 122 260 121 462 121 665 c 1
 124 686 108 711 83 707 c 1
 68 709 60 723 62 738 c 0
 63 749 69 757 81 760 c 1
 248 761 417 761 584 761 c 1
 581 761 580 762 583 761 c 0
 599 759 615 765 627 757 c 1
 640 735 649 707 661 683 c 1
 660 686 659 686 660 683 c 0
 667 662 682 645 683 624 c 1
 679 604 649 604 637 621 c 1
 619 664 576 697 528 701 c 0
 429 702 330 702 231 702 c 0
 229 702 l 1
 229 62 l 2
171 108 m 0
 159 108 154 101 154 92 c 0
 155 82 164 70 177 73 c 1
 197 78 192 109 171 108 c 0
172 104 m 0
 186 105 189 81 175 78 c 1
 166 76 159 84 159 92 c 0
 159 98 163 104 172 104 c 0
154 648 m 0
 158 638 168 637 176 640 c 0
 185 644 193 653 186 665 c 0
 186 666 l 0
 174 682 146 667 154 648 c 0
159 650 m 0
 154 663 173 673 181 662 c 1
 181 662 182 649 174 646 c 0
 168 644 161 644 159 650 c 0
EndSplineSet
Validated: 37
EndChar

StartChar: uni0414
Encoding: 1044 1044 16
Width: 1000
VWidth: 0
Flags: W
HStem: -106 5<25 689> -41 6<82.8494 96.9899> -26 5<165.915 465.889> 680 6<272 482> 759 6<160.216 662.779>
VStem: 20 5<-101 -34> 189 6<539.874 662.832> 267 5<405.406 680> 270 5<344.724 675.731> 482 6<-7.82436 680> 625 6<3.54636 6 657 669.432> 689 7<-101 -50.0234>
LayerCount: 2
Fore
SplineSet
189 603 m 0xfe70
 195 481 201 356 172 237 c 0
 148 135 83 51 20 -31 c 0
 20 -32 l 1
 20 -106 l 1
 696 -106 l 1
 696 -104 l 0
 694 -85 701 -64 690 -44 c 0
 690 -43 l 0
 672 -21 640 -21 633 6 c 0
 631 13 631 19 631 26 c 0
 631 236 631 447 631 657 c 0
 632 676 647 690 666 691 c 0
 667 691 l 0
 699 702 696 753 665 763 c 0
 638 769 609 765 583 766 c 0
 582 766 l 1
 441 766 302 766 161 765 c 0
 160 765 l 0
 127 761 116 713 145 695 c 0
 146 695 l 1
 146 694 l 0
 161 687 177 688 183 673 c 1
 193 652 185 627 189 603 c 0xfe70
625 27 m 0
 625 19 625 12 627 4 c 1
 635 -27 671 -28 686 -47 c 1
 676 -33 678 -32 686 -47 c 0
 695 -63 688 -81 689 -101 c 1
 25 -101 l 1
 25 -34 l 1
 87 46 153 133 178 236 c 0
 207 356 201 481 195 603 c 0
 191 625 199 652 188 675 c 1
 180 694 160 694 147 700 c 1
 162 692 163 691 148 700 c 0
 125 715 134 756 161 759 c 1
 144 758 144 759 161 759 c 0
 302 760 441 760 582 760 c 1
 565 760 565 761 582 760 c 0
 609 759 638 762 664 757 c 1
 647 761 647 762 663 757 c 0
 689 749 691 707 665 697 c 1
 644 695 626 679 625 657 c 0
 625 447 625 237 625 27 c 0
564 582 m 0
 546 578 539 603 560 607 c 0
 575 607 577 586 564 582 c 0
559 613 m 2
 530 607 540 570 565 576 c 0
 586 582 580 614 559 613 c 2
89 -35 m 2
 88 -35 l 0
 58 -43 69 -81 96 -73 c 0
 117 -67 110 -34 89 -35 c 2
89 -41 m 0
 104 -41 108 -64 94 -68 c 0
 74 -74 67 -48 89 -41 c 0
160 6 m 0
 178 40 199 72 215 108 c 1
 261 199 273 300 275 400 c 0xfef0
 277 493 274 589 272 680 c 1xff70
 482 680 l 1
 482 453 483 227 482 1 c 0
 480 -17 460 -24 442 -21 c 0
 352 -20 263 -23 174 -21 c 1
 160 -21 155 -6 160 6 c 0
488 686 m 1
 267 686 l 1
 267 683 l 0xff70
 269 589 272 495 270 401 c 0
 268 301 255 200 210 110 c 1
 194 75 172 43 154 8 c 0
 147 -7 155 -26 174 -26 c 1
 263 -28 353 -26 442 -27 c 1
 461 -30 485 -22 488 1 c 0
 489 228 488 456 488 683 c 0
 488 686 l 1
EndSplineSet
Validated: 37
EndChar

StartChar: uni0415
Encoding: 1045 1045 17
Width: 1000
VWidth: 0
Flags: W
HStem: -141 5<49.6648 611.12> -71 5<210 486> 260 5<210 400.762> 335 6<210 400.726> 596 5<210 496.702> 660 5<52.4064 583.776>
VStem: 91 5<-60.4203 553.391> 161 6<-36.9666 -22.3553 535.033 548.448> 205 5<-66 260 341 596> 421 5<209.76 239.619> 479 6<207.355 392.957> 644 4<517.272 533.53>
LayerCount: 2
Fore
SplineSet
639 34 m 0
 613 27 612 -4 598 -18 c 0
 597 -19 l 1
 572 -53 528 -70 486 -66 c 0
 210 -66 l 1
 210 260 l 1
 388 260 l 2
 409 261 425 240 421 220 c 0
 421 219 l 0
 421 192 457 176 476 197 c 0
 493 216 483 242 485 262 c 0
 484 303 486 345 484 387 c 0
 479 414 440 421 426 397 c 0
 414 379 426 360 410 349 c 0
 392 335 368 344 345 341 c 2
 210 341 l 1
 210 596 l 1
 303 596 396 597 489 595 c 0
 534 590 574 559 592 517 c 0
 604 497 644 493 648 521 c 0
 648 522 l 0
 647 545 633 564 626 584 c 0
 614 608 606 635 592 659 c 0
 592 660 l 1
 591 660 l 0
 576 671 558 663 544 665 c 0
 543 665 l 1
 381 665 218 666 56 665 c 0
 55 665 l 1
 23 659 25 604 58 601 c 0
 59 601 l 0
 79 605 94 584 91 564 c 0
 91 563 l 0
 91 358 92 154 91 -51 c 0
 90 -68 74 -82 57 -78 c 0
 26 -81 22 -130 51 -140 c 0
 86 -143 123 -141 158 -142 c 1
 308 -142 458 -142 607 -141 c 0
 608 -141 l 1
 626 -134 627 -111 634 -100 c 0
 647 -66 662 -32 674 3 c 1
 681 24 659 42 639 34 c 0
388 265 m 2
 205 265 l 1
 205 -71 l 1
 486 -71 l 1
 470 -70 469 -70 485 -71 c 0
 529 -75 576 -56 602 -21 c 1
 592 -33 591 -32 602 -21 c 0
 620 -3 619 23 641 29 c 0
 657 35 675 22 669 5 c 1
 657 -29 643 -62 629 -97 c 1
 621 -111 621 -130 607 -136 c 1
 459 -137 307 -136 158 -136 c 1
 122 -135 88 -138 52 -135 c 1
 30 -127 32 -88 57 -84 c 1
 78 -88 95 -72 96 -51 c 0
 97 154 96 358 96 563 c 1
 95 547 94 547 96 563 c 0
 99 584 83 610 58 606 c 1
 33 609 29 653 56 659 c 1
 218 660 381 660 543 660 c 1
 527 661 527 662 543 660 c 0
 560 657 575 664 587 656 c 1
 600 634 609 605 621 581 c 1
 615 596 616 597 621 582 c 0
 628 561 643 543 644 522 c 1
 640 501 608 502 597 519 c 1
 579 562 538 595 490 600 c 0
 489 600 l 0
 395 602 301 600 207 601 c 0
 205 601 l 1
 205 335 l 1
 345 335 l 1
 366 337 392 328 413 344 c 1
 432 357 422 382 431 395 c 0
 442 415 475 407 479 386 c 1
 477 402 478 403 479 387 c 0
 481 346 478 304 479 262 c 1
 480 278 481 279 479 263 c 0
 476 241 486 217 472 201 c 0
 457 184 426 198 426 219 c 1
 430 241 412 266 388 265 c 2
167 544 m 2
 161 570 123 559 132 537 c 1
 127 552 126 552 131 537 c 0
 137 517 168 524 167 544 c 2
161 543 m 0
 161 529 141 526 137 539 c 0
 131 554 156 562 161 543 c 0
166 -28 m 2
 161 -1 124 -12 131 -35 c 1
 137 -55 167 -48 166 -28 c 2
161 -29 m 0
 162 -43 140 -46 136 -33 c 1
 131 -16 157 -8 161 -29 c 0
EndSplineSet
Validated: 37
EndChar

StartChar: uni0416
Encoding: 1046 1046 18
Width: 1000
VWidth: 0
Flags: W
HStem: -167 4<29.6656 183.602 277.981 427.731 513.425 667> -119 4<403 413.93> 446 4<269 390.496>
VStem: 211 4<232.14 246.688> 300 4<-106.234 -20.7148> 302 4<263.681 377.698> 389 5<43.4973 126 261.827 386.474> 518 4<-88.7896 -79>
LayerCount: 2
Fore
SplineSet
221 11 m 0xf7
 241 50 259 89 279 127 c 1
 292 89 303 -58 300 -104 c 1xfb
 292 -123 246 -115 257 -150 c 0
 257 -151 l 1
 275 -180 318 -162 343 -167 c 0
 344 -167 l 0
 371 -165 402 -171 429 -163 c 0
 430 -163 l 1
 454 -141 426 -115 403 -115 c 1
 382 -37 394 48 394 124 c 1
 417 153 427 95 442 74 c 1
 442 74 513 -68 518 -80 c 1
 518 -104 466 -156 518 -167 c 0
 568 -167 617 -167 667 -166 c 0
 704 -150 684 -108 653 -102 c 1
 629 -76 620 -38 601 -6 c 0
 562 74 521 155 482 235 c 1
 490 261 520 275 538 297 c 0
 559 318 580 337 601 357 c 1
 636 332 692 361 685 405 c 0
 681 447 622 468 595 435 c 0
 531 375 466 315 401 256 c 1
 381 270 400 317 393 344 c 1
 389 372 393 409 428 406 c 0
 429 406 l 1
 430 407 l 0
 461 437 414 460 388 451 c 1
 348 450 309 454 270 450 c 0
 269 450 l 1
 269 449 l 0
 239 429 267 398 292 399 c 1
 313 364 296 315 302 272 c 0
 301 232 268 284 249 296 c 1
 194 347 142 396 87 446 c 0
 86 446 l 0
 48 467 -4 426 13 384 c 0
 25 342 74 348 99 353 c 1
 137 317 174 281 211 245 c 1
 210 214 185 187 174 157 c 0
 133 74 93 -10 52 -92 c 1
 32 -109 -16 -131 21 -162 c 0
 21 -163 l 0
 47 -173 77 -164 104 -167 c 0
 105 -167 l 1
 132 -165 163 -171 190 -164 c 0
 191 -164 l 1
 191 -163 l 0
 216 -137 182 -108 177 -87 c 1
 181 -51 208 -23 221 11 c 0xf7
390 126 m 2
 389 126 l 1
 389 125 l 0
 389 49 379 -38 400 -117 c 0
 400 -119 l 1
 402 -119 l 0
 424 -117 449 -140 428 -159 c 1
 403 -166 373 -161 344 -163 c 1
 316 -157 277 -174 261 -149 c 1
 251 -116 294 -132 304 -105 c 0xfb
 307 -55 296 102 281 133 c 0
 279 137 l 1
 277 133 l 0
 256 93 238 52 217 12 c 0
 204 -21 177 -50 173 -87 c 0
 173 -88 l 0
 178 -114 211 -136 189 -160 c 1
 165 -166 132 -161 104 -163 c 1
 116 -163 117 -164 105 -163 c 0
 77 -160 47 -168 22 -159 c 1
 -9 -131 33 -113 55 -94 c 0
 56 -94 l 0
 97 -11 137 73 178 156 c 0
 188 185 215 213 215 245 c 0
 215 246 l 1
 215 247 l 0
 178 284 139 320 101 356 c 0
 100 357 l 1
 99 357 l 0
 73 352 28 347 17 385 c 0
 2 423 49 461 84 442 c 1
 139 393 193 343 247 293 c 0
 260 285 305 223 306 272 c 0xf7
 301 313 319 364 295 402 c 0
 294 404 l 1
 293 403 l 0
 270 400 247 429 271 446 c 1
 309 449 350 446 389 447 c 0
 414 456 451 435 427 410 c 1
 388 412 385 371 389 343 c 0
 396 319 375 268 400 252 c 0
 401 251 l 1
 402 252 l 0
 467 312 534 371 598 432 c 0
 598 433 l 1
 599 433 l 0
 624 463 678 443 681 405 c 0
 681 404 l 1
 687 364 634 336 603 361 c 0
 601 362 l 1
 600 361 l 0
 579 340 556 321 535 300 c 0
 518 279 486 264 479 236 c 0
 479 235 l 1
 479 234 l 0
 518 153 557 72 597 -8 c 0
 616 -39 625 -77 650 -104 c 0
 650 -105 l 1
 651 -105 l 0
 680 -109 697 -148 666 -162 c 1
 617 -163 569 -163 519 -163 c 1
 472 -152 523 -111 522 -79 c 0
 521 -78 l 0
 499 -25 471 24 446 76 c 0
 435 91 418 162 390 126 c 2
333 359 m 0
 337 343 364 351 359 369 c 0
 359 370 l 1
 352 385 328 375 333 359 c 0
337 361 m 0
 334 372 350 377 355 368 c 1
 358 354 340 351 337 361 c 0
349 -89 m 0
 366 -87 361 -60 344 -62 c 0
 327 -65 332 -92 349 -89 c 0
344 -65 m 0
 356 -63 359 -84 348 -85 c 0
 336 -87 332 -67 344 -65 c 0
EndSplineSet
Validated: 37
EndChar

StartChar: uni0417
Encoding: 1047 1047 19
Width: 1000
VWidth: 0
Flags: W
HStem: 97 5<304.756 382.367>
VStem: 63 5<196.353 205.442>
LayerCount: 2
Fore
SplineSet
417 382 m 0
 463 354 514 324 534 272 c 0
 547 238 541 199 518 171 c 1
 477 119 406 102 343 102 c 0
 253 102 160 138 105 211 c 0
 92 227 63 218 63 197 c 0
 65 182 82 175 89 166 c 0
 90 166 l 0
 164 96 260 44 364 36 c 0
 450 29 542 53 604 116 c 0
 642 155 662 215 644 268 c 1
 625 328 576 371 526 402 c 1
 515 412 500 411 512 417 c 0
 513 417 l 0
 554 450 588 492 605 543 c 0
 622 596 610 655 575 697 c 1
 525 758 441 782 366 771 c 0
 279 759 203 709 142 647 c 1
 139 659 138 677 120 679 c 0
 105 681 80 679 74 660 c 0
 93 513 l 1
 94 513 l 0
 111 495 136 507 148 521 c 0
 182 594 240 664 320 686 c 1
 356 696 397 702 430 684 c 0
 431 684 l 0
 475 665 504 617 498 569 c 1
 491 507 448 457 402 417 c 1
 387 402 406 387 417 382 c 0
601 544 m 0
 585 494 551 454 510 421 c 1
 490 411 519 401 522 398 c 0
 523 398 l 1
 573 367 621 324 639 266 c 1
 657 215 638 157 601 119 c 0
 540 57 449 34 364 41 c 0
 261 49 167 100 93 169 c 1
 103 158 102 157 93 169 c 0
 84 180 70 185 68 197 c 1
 69 183 68 182 68 197 c 0
 68 214 91 221 102 208 c 1
 93 219 93 220 102 208 c 0
 158 134 252 97 343 97 c 0
 407 97 479 115 521 168 c 1
 545 197 552 238 539 273 c 0
 518 327 466 359 420 386 c 0
 408 391 395 404 405 414 c 1
 451 454 496 504 503 568 c 1
 510 619 478 668 432 688 c 1
 445 682 446 681 433 688 c 0
 398 707 355 700 319 690 c 1
 237 667 179 599 145 524 c 1
 133 511 112 502 98 516 c 1
 79 659 l 1
 84 673 103 676 119 674 c 0
 134 673 134 656 139 642 c 0
 140 638 l 1
 143 641 l 0
 204 703 279 754 366 766 c 0
 440 777 522 754 571 694 c 1
 605 653 618 595 601 544 c 0
583 146 m 0
 602 153 588 186 567 174 c 0
 567 173 l 0
 552 162 566 139 583 146 c 0
570 169 m 0
 584 177 592 154 581 150 c 0
 570 145 560 162 570 169 c 0
507 688 m 0
 491 677 511 648 528 664 c 0
 528 665 l 1
 529 665 l 0
 541 679 522 699 507 688 c 0
525 668 m 0
 513 657 500 677 510 684 c 0
 520 691 533 677 525 668 c 0
EndSplineSet
Validated: 37
EndChar

StartChar: uni0418
Encoding: 1048 1048 20
Width: 1000
VWidth: 0
Flags: W
HStem: -123 4<104.007 173.92 176.735 288.077 445.101 541.545 544.361 632.984> -21 20G<181.5 187> 622 5<101.554 104 288 290.243 444.943 561 632 632.966>
VStem: 141 5<-48.7273 552.163> 246 6<-46.3899 -8 136 552.293> 483 5<-49.2928 -40> 590 5<-49.2928 552.073>
LayerCount: 2
Fore
SplineSet
595 -40 m 0
 594 153 595 348 595 541 c 1
 595 557 609 571 625 568 c 0
 654 570 659 615 633 625 c 0
 609 629 584 626 561 627 c 0
 560 627 l 0
 523 626 485 628 448 626 c 0
 447 626 l 0
 420 618 422 573 450 568 c 0
 451 568 l 0
 465 570 478 564 481 550 c 0
 484 537 483 523 482 511 c 1
 252 136 l 1
 252 273 251 407 252 543 c 0
 253 559 267 571 283 568 c 0
 312 571 316 617 289 626 c 0
 288 626 l 0
 256 629 223 626 192 627 c 0
 163 626 133 629 104 626 c 0
 77 617 79 571 108 568 c 0
 109 568 l 0
 125 571 140 559 141 543 c 0
 142 350 141 155 141 -38 c 1
 141 -54 126 -68 110 -65 c 0
 109 -65 l 0
 80 -67 76 -112 102 -122 c 0
 103 -122 l 1
 127 -126 152 -123 175 -124 c 0
 212 -123 250 -125 287 -123 c 0
 314 -115 313 -70 285 -65 c 0
 284 -65 l 1
 270 -67 257 -61 254 -47 c 0
 251 -34 251 -20 252 -8 c 1
 483 367 l 1
 483 230 484 96 483 -40 c 0
 482 -56 468 -68 452 -65 c 0
 451 -65 l 0
 422 -68 419 -114 446 -123 c 0
 447 -123 l 0
 479 -126 512 -123 543 -124 c 0
 572 -123 603 -126 632 -123 c 0
 659 -114 656 -68 627 -65 c 0
 626 -65 l 1
 610 -68 596 -56 595 -40 c 0
246 127 m 2
 246 118 l 1
 487 509 l 1
 487 510 l 0
 489 523 489 537 486 551 c 0
 482 568 467 575 450 573 c 1
 429 577 425 614 448 621 c 1
 484 623 524 621 561 622 c 1
 546 622 545 623 560 622 c 0
 584 621 608 624 632 620 c 1
 653 612 649 575 625 573 c 1
 605 576 590 560 590 541 c 1
 590 348 589 153 590 -40 c 0
 591 -59 607 -73 627 -70 c 1
 648 -73 653 -110 631 -118 c 1
 603 -121 572 -118 543 -119 c 1
 511 -118 479 -121 447 -118 c 1
 426 -111 429 -73 452 -70 c 1
 471 -73 487 -59 488 -40 c 0
 489 99 488 237 488 376 c 0
 488 385 l 1
 247 -6 l 1
 247 -7 l 0
 245 -20 246 -34 249 -48 c 0
 253 -65 267 -72 284 -70 c 1
 305 -74 309 -111 286 -118 c 1
 250 -120 212 -118 175 -119 c 1
 190 -119 190 -120 175 -119 c 0
 151 -118 128 -121 104 -117 c 1
 83 -109 85 -72 109 -70 c 1
 129 -73 146 -57 146 -38 c 1
 146 155 147 350 146 543 c 0
 145 562 128 576 108 573 c 1
 87 576 82 613 104 621 c 1
 132 624 163 621 192 622 c 1
 224 621 256 624 288 621 c 1
 309 614 306 576 283 573 c 1
 264 576 248 562 247 543 c 0
 246 404 246 266 246 127 c 2
199 -27 m 0
 219 -21 206 12 185 3 c 0
 168 -7 181 -34 199 -27 c 0
197 -22 m 0
 185 -27 176 -8 187 -1 c 1
 187 -1 220 -14 197 -22 c 0
524 522 m 2
 529 497 564 507 558 528 c 1
 552 546 523 541 524 522 c 2
529 523 m 0
 529 536 549 539 553 527 c 1
 557 512 533 504 529 523 c 0
EndSplineSet
Validated: 37
EndChar

StartChar: uni041B
Encoding: 1051 1051 21
Width: 1000
VWidth: 0
Flags: W
HStem: -100 5<476.46 664.971> -2 21G<194 214> 575 6<308 515> 600 5<207.955 231.549> 655 5<207.864 664.372>
VStem: 245 5<74.7766 555.734> 303 5<47.5047 575> 515 6<-24.1627 575> 622 5<403.392 583.725>
LayerCount: 2
Fore
SplineSet
627 574 m 5
 628 590 642 603 658 600 c 0
 659 600 l 0
 690 605 689 658 657 661 c 0
 509 661 361 661 213 660 c 0
 212 660 l 1
 181 654 184 601 216 600 c 0
 217 600 l 1
 237 604 249 582 246 563 c 0
 246 408 246 253 245 99 c 0
 243 60 233 15 195 -2 c 0
 194 -2 l 0
 182 -11 192 5 184 17 c 1
 166 62 105 80 66 53 c 0
 25 29 18 -34 51 -68 c 0
 78 -96 122 -102 158 -99 c 1
 237 -90 300 -19 307 58 c 0
 310 123 307 188 308 253 c 1
 308 575 l 1
 515 575 l 1
 515 379 516 181 515 -15 c 0
 514 -31 499 -43 483 -40 c 0
 482 -40 l 0
 452 -43 451 -91 479 -99 c 0
 538 -101 597 -99 656 -100 c 1
 686 -100 692 -53 665 -42 c 0
 652 -39 639 -42 633 -30 c 0
 621 -10 629 551 627 574 c 5
521 578 m 2
 521 581 l 1
 303 581 l 1
 303 253 l 1
 302 188 305 122 302 58 c 1
 295 -17 233 -85 157 -93 c 1
 121 -96 80 -91 55 -65 c 0
 24 -33 31 26 69 48 c 0
 69 49 l 0
 106 74 163 57 179 15 c 0
 179 14 l 1
 182 10 180 -19 197 -7 c 1
 238 11 248 60 250 99 c 0
 251 254 251 408 251 563 c 1
 250 548 249 547 251 562 c 0
 254 582 241 609 216 605 c 1
 192 606 188 649 213 655 c 1
 360 656 509 655 657 655 c 1
 682 653 684 609 659 605 c 1
 640 608 623 594 622 574 c 0
 621 395 622 216 622 37 c 0
 622 36 l 0
 624 15 616 -12 629 -33 c 1
 637 -48 653 -44 664 -47 c 1
 650 -43 650 -42 664 -47 c 0
 686 -56 680 -95 656 -95 c 1
 597 -94 539 -96 479 -94 c 1
 458 -87 458 -49 482 -45 c 1
 501 -48 519 -35 520 -15 c 0
 521 182 521 381 521 578 c 2
107 21 m 0
 122 31 131 6 119 0 c 0
 107 -5 96 13 107 21 c 0
122 -5 m 2
 141 5 125 38 104 24 c 0
 88 12 104 -13 122 -5 c 2
559 550 m 0
 558 563 578 568 582 555 c 1
 588 538 562 530 559 550 c 0
554 550 m 2
 558 524 595 532 587 556 c 1
 581 574 553 569 554 550 c 2
EndSplineSet
Validated: 37
EndChar

StartChar: uni041D
Encoding: 1053 1053 22
Width: 1000
VWidth: 0
Flags: W
HStem: 20 42<50.4067 112.742 213.379 266.242 416.438 477.148 578.336 632.242> 344 45<211 480> 668 46<57.9407 113.646 211.719 273.55 424.576 478.567 576.055 639.89>
VStem: 116 95<64.5586 344 389 667.594> 479 34<100.985 129.999> 480 95<64.4052 344 389 667.64>
LayerCount: 2
Fore
SplineSet
476 593 m 1
 476 394 l 1
 216 394 l 1
 216 477 215 560 216 642 c 0
 217 657 231 667 246 664 c 0
 246 664 l 1
 246 664 l 0
 269 660 288 689 272 708 c 1
 258 726 234 717 217 719 c 0
 217 719 l 1
 217 719 l 0
 196 719 177 719 156 719 c 4
 127 719 96 719 67 718 c 0
 66 718 l 1
 66 718 l 0
 43 713 39 678 61 667 c 0
 78 658 96 670 105 654 c 1
 116 636 109 614 111 593 c 0
 111 426 111 260 110 93 c 1
 109 77 96 64 81 68 c 0
 60 73 39 52 48 31 c 0
 55 11 77 13 92 14 c 0
 147 15 202 13 257 15 c 0
 257 15 l 1
 257 15 l 0
 280 20 284 54 263 65 c 1
 247 74 231 63 222 78 c 1
 211 96 218 119 216 140 c 2
 216 339 l 1
 476 339 l 1
 476 256 476 173 475 91 c 1025xf0
475 91 m 1
 474 76 460 65 445 68 c 1
 423 73 403 46 416 26 c 1
 429 5 456 16 473 14 c 0
 473 14 l 1
 473 14 l 0
 523 15 573 13 623 15 c 0
 623 15 l 1
 623 15 l 0
 646 20 651 54 629 65 c 0
 612 74 595 62 586 78 c 1
 575 96 582 119 580 140 c 0
 580 307 579 473 580 640 c 0
 581 656 594 668 610 664 c 1
 632 659 653 684 641 704 c 1
 629 725 602 718 585 719 c 0
 585 719 l 1
 585 719 l 0
 534 718 485 720 434 718 c 0
 433 718 l 1
 433 718 l 0
 409 713 405 676 428 666 c 1
 444 658 461 669 470 654 c 1
 481 636 474 613 476 592 c 1025
211 392 m 2
 211 389 l 1
 480 389 l 1
 480 593 l 1
 478 613 486 637 474 657 c 1
 464 675 442 666 430 671 c 1
 411 679 414 709 434 713 c 1
 484 715 534 713 585 714 c 1
 605 712 627 720 637 702 c 1
 647 685 630 664 611 668 c 1
 592 672 576 658 575 640 c 0
 574 473 575 307 575 140 c 0xf4
 577 120 570 95 582 75 c 1
 593 56 615 68 627 62 c 0
 645 53 641 24 622 20 c 1
 573 18 523 20 473 19 c 1
 453 21 431 11 420 29 c 1
 409 45 425 68 444 64 c 1
 462 60 477 73 479 91 c 0xf8
 480 174 480 258 480 341 c 0
 480 344 l 1xf4
 211 344 l 1
 211 140 l 1
 213 120 205 95 217 75 c 1
 227 57 249 68 261 62 c 1
 279 53 275 24 256 20 c 1
 202 18 147 20 92 19 c 0
 76 18 57 17 52 33 c 0
 45 50 62 68 80 64 c 0
 99 60 114 75 115 93 c 1
 115 167 116 242 116 316 c 0
 116 408 116 501 116 593 c 0
 114 613 121 637 109 657 c 1
 98 676 74 664 62 671 c 0
 44 680 48 709 67 713 c 1
 95 714 124 714 153 714 c 0
 172 714 190 714 209 714 c 0
 210 714 l 0
 211 714 l 0
 213 714 215 714 217 714 c 1
 214 714 213 714 211 714 c 0
 210 715 l 0
 209 715 l 0
 208 715 207 715 207 715 c 0
 207 715 207 715 208 715 c 0
 210 715 213 714 217 714 c 0
 237 712 257 721 269 705 c 1
 282 690 266 665 247 668 c 1
 229 672 213 660 211 642 c 0
 210 559 211 475 211 392 c 2
172 615 m 2
 168 638 135 629 141 609 c 1
 146 592 173 597 172 615 c 2
167 615 m 0
 168 603 150 599 146 611 c 1
 142 624 163 632 167 615 c 0
513 115 m 0xf8
 513 91 553 98 544 121 c 1
 548 108 548 107 544 120 c 0
 539 137 512 133 513 115 c 0xf8
518 115 m 0
 517 127 536 131 539 119 c 0
 545 102 518 97 518 115 c 0
EndSplineSet
Validated: 43
EndChar

StartChar: uni041E
Encoding: 1054 1054 23
Width: 1000
VWidth: 0
Flags: W
HStem: 470 4<333.22 385.494> 510 4<310.156 409.897>
VStem: 60 3<176.194 255.435>
LayerCount: 2
Fore
SplineSet
63 190 m 2
 62 213 l 1
 62 243 65 274 75 302 c 1
 91 357 123 405 166 441 c 1
 196 465 230 487 267 498 c 1
 310 513 356 516 401 510 c 1
 428 505 457 497 482 485 c 1
 527 465 565 434 595 396 c 1
 619 364 637 327 646 288 c 1
 662 229 656 166 634 109 c 1
 625 87 614 66 600 45 c 1
 607 55 607 54 600 45 c 0
 579 19 554 -7 526 -26 c 0
 525 -26 l 1
 507 -39 490 -49 469 -57 c 1
 414 -78 354 -84 296 -70 c 1
 274 -66 252 -60 231 -50 c 1
 169 -21 117 33 89 96 c 1
 75 126 65 157 63 190 c 2
528 -29 m 0
 557 -9 582 16 603 43 c 0
 617 64 628 85 638 107 c 1
 660 165 665 229 649 289 c 1
 639 329 622 366 598 398 c 1
 568 436 529 469 484 489 c 1
 459 501 430 509 402 514 c 1
 356 520 310 516 266 501 c 1
 228 489 193 468 163 444 c 1
 120 407 87 358 71 303 c 1
 61 274 59 243 59 213 c 0
 60 190 l 2
 62 157 71 124 85 94 c 1
 113 30 166 -23 229 -53 c 1
 250 -63 273 -70 295 -74 c 1
 353 -88 414 -82 470 -61 c 1
 491 -53 510 -43 528 -29 c 0
116 220 m 0
 113 238 85 232 90 214 c 1
 88 226 88 227 90 215 c 0
 93 197 121 203 116 220 c 0
112 219 m 1
 115 207 96 203 94 215 c 0
 91 227 110 232 112 220 c 0
 112 219 l 1
153 143 m 0
 164 98 186 56 217 23 c 1
 245 -6 282 -28 323 -36 c 0
 350 -42 379 -40 406 -33 c 1
 440 -23 473 -4 497 21 c 1
 523 47 543 79 556 114 c 0
 578 176 580 245 561 307 c 1
 553 332 541 356 526 378 c 1
 503 412 471 441 433 458 c 1
 408 470 379 475 352 474 c 0
 330 473 306 469 285 459 c 1
 260 448 239 430 218 411 c 0
 189 379 166 341 155 299 c 1
 140 248 139 194 153 143 c 0
221 408 m 0
 241 427 262 444 287 455 c 1
 308 464 331 469 353 470 c 0
 380 471 407 466 431 454 c 0
 468 438 500 410 522 376 c 1
 537 355 549 330 557 306 c 1
 576 244 574 177 552 116 c 0
 539 82 519 48 494 23 c 1
 470 -2 438 -19 405 -29 c 1
 379 -36 350 -37 324 -32 c 0
 284 -24 248 -2 220 26 c 1
 189 58 167 100 157 144 c 0
 143 194 144 247 159 297 c 1
 170 339 192 377 221 408 c 0
603 211 m 2
 615 198 633 209 625 226 c 0
 625 227 l 1
 624 227 l 0
 613 238 594 225 603 211 c 2
605 213 m 0
 600 223 614 230 621 224 c 1
 627 210 614 204 605 213 c 0
EndSplineSet
Validated: 37
EndChar

StartChar: uni0420
Encoding: 1056 1056 24
Width: 1000
VWidth: 0
Flags: W
HStem: 17 4<105.463 295.52> 397 5<258 481.646> 462 5<258 421.47> 716 6<258 437.448> 722 5<106.869 131.014> 777 5<105.005 481.462>
VStem: 145 5<92.2363 675.906> 253 5<93.0398 397 467 716>
LayerCount: 2
Fore
SplineSet
313 35 m 0xef
 321 56 303 80 281 76 c 1
 266 77 258 92 258 106 c 0
 258 203 258 301 258 397 c 1
 329 398 399 396 470 398 c 1
 555 404 639 461 660 546 c 1
 680 616 648 694 590 736 c 1
 543 772 482 786 424 783 c 0
 320 783 214 783 110 782 c 0
 109 782 l 0
 79 774 83 723 115 722 c 0
 116 722 l 0
 136 726 149 704 146 685 c 0
 146 491 146 296 145 102 c 0
 144 85 129 72 113 75 c 0
 112 75 l 0
 82 72 80 25 108 17 c 0
 109 17 l 0
 164 15 217 17 272 16 c 0
 287 14 308 16 313 35 c 0xef
253 106 m 0
 253 90 262 70 281 70 c 0
 282 70 l 0
 300 74 316 54 309 37 c 0
 305 22 288 19 273 21 c 0
 272 21 l 0
 217 22 165 19 109 21 c 1
 88 28 88 66 112 70 c 1
 131 67 149 82 150 102 c 0
 151 296 150 491 150 685 c 1
 149 670 148 670 150 685 c 0
 153 705 140 731 115 727 c 1
 91 728 85 770 110 777 c 1
 214 778 321 777 425 777 c 0
 483 780 541 768 587 732 c 1
 644 691 673 616 654 548 c 1
 633 466 553 409 470 403 c 1
 399 401 326 403 255 402 c 0
 253 402 l 1
 253 400 l 0
 253 302 253 204 253 106 c 0
203 104 m 0
 223 110 209 145 188 136 c 0
 171 126 184 97 203 104 c 0
201 109 m 0
 188 104 179 124 190 131 c 1
 207 137 213 113 201 109 c 0
429 716 m 0xf7
 480 709 511 657 516 608 c 1
 522 554 499 494 448 473 c 1
 385 462 323 467 258 467 c 1
 258 716 l 1
 316 716 372 718 429 716 c 0xf7
253 722 m 1xef
 253 462 l 1
 256 462 l 0
 323 462 385 457 449 468 c 0
 450 468 l 0
 505 490 528 554 521 609 c 1
 516 659 484 713 430 721 c 0
 372 723 314 722 256 722 c 0
 253 722 l 1xef
562 679 m 0
 542 673 556 638 577 647 c 0
 594 657 581 686 562 679 c 0
564 674 m 0
 577 679 586 659 575 652 c 1
 558 646 552 670 564 674 c 0
EndSplineSet
Validated: 37
EndChar

StartChar: uni041F
Encoding: 1055 1055 25
Width: 1000
VWidth: 0
Flags: W
HStem: -80 5<92.3749 294.874 423.465 625.874> 632 5<252 466> 710 5<92.4829 100 623 626.288>
VStem: 134 6<-3.09399 176.221> 247 5<0.414337 632> 466 6<-1.8707 632> 505 5<592.64 608.469> 579 5<7.95045 636.959> 581 6<-8.15615 618.203>
LayerCount: 2
Fore
SplineSet
134 8 m 0xff
 133 -9 118 -23 101 -20 c 0
 100 -20 l 0
 69 -23 66 -71 95 -80 c 0
 96 -80 l 0
 162 -80 228 -84 290 -80 c 0
 291 -80 l 0
 320 -72 318 -25 288 -20 c 0
 287 -20 l 1
 273 -22 259 -15 255 -1 c 0
 253 4 252 9 252 14 c 2
 252 632 l 1
 466 632 l 1
 466 424 467 216 466 8 c 0
 465 -9 450 -23 433 -20 c 0
 432 -20 l 1
 401 -23 397 -71 426 -80 c 0
 427 -80 l 1
 493 -80 560 -84 622 -80 c 0
 651 -72 649 -25 619 -20 c 0
 604 -22 591 -15 587 -2 c 1xfe80
 580 210 583 440 584 627 c 0
 585 644 599 657 616 654 c 0
 647 656 653 704 625 715 c 0
 624 715 l 0
 448 719 254 718 99 717 c 0
 69 712 67 663 96 655 c 0
 97 655 l 0
 111 654 123 654 129 643 c 1
 144 431 135 196 134 8 c 0xff
247 14 m 2
 247 8 248 2 250 -3 c 1
 245 12 246 12 250 -3 c 0
 255 -20 270 -26 287 -24 c 1
 309 -28 314 -68 290 -75 c 1
 229 -79 163 -76 96 -75 c 1
 75 -67 76 -28 101 -24 c 1
 121 -28 139 -13 140 8 c 0
 141 196 149 432 134 644 c 0
 134 645 l 0
 127 661 111 660 97 661 c 1
 75 668 75 706 100 711 c 1
 255 712 446 714 623 710 c 1
 644 701 642 662 617 660 c 1
 597 663 580 648 579 628 c 0xff
 578 441 574 209 581 -2 c 0
 581 -3 l 0
 586 -20 602 -26 619 -24 c 1
 641 -28 645 -67 621 -75 c 1
 560 -79 495 -76 428 -75 c 1
 407 -67 407 -28 432 -24 c 1
 452 -27 470 -13 471 8 c 0
 472 217 472 425 472 634 c 0
 472 637 l 1
 247 637 l 1
 247 14 l 2
505 601 m 0
 505 573 545 582 540 606 c 0
 534 625 504 621 505 601 c 0
534 605 m 0
 538 588 510 580 510 601 c 0
 509 615 530 618 534 605 c 0
178 36 m 2
 186 9 221 18 213 43 c 0
 207 62 177 56 178 36 c 2
184 37 m 0
 184 51 204 54 208 41 c 0
 214 22 190 16 184 37 c 0
EndSplineSet
Validated: 37
EndChar
